G04*
G04 #@! TF.GenerationSoftware,Altium Limited,Altium Designer,24.1.2 (44)*
G04*
G04 Layer_Color=32896*
%FSTAX44Y44*%
%MOMM*%
G71*
G04*
G04 #@! TF.SameCoordinates,C7039DF5-E853-41F3-B9AB-9B0EBC08B061*
G04*
G04*
G04 #@! TF.FilePolarity,Positive*
G04*
G01*
G75*
%ADD11C,0.2540*%
%ADD13C,0.2000*%
D11*
X01257287Y00995677D02*
Y00980443D01*
X01249669D01*
X0124713Y00982982D01*
Y00993138D01*
X01249669Y00995677D01*
X01257287D01*
X01231895Y00993138D02*
X01234434Y00995677D01*
X01239513D01*
X01242052Y00993138D01*
Y00990599D01*
X01239513Y0098806D01*
X01234434D01*
X01231895Y00985521D01*
Y00982982D01*
X01234434Y00980443D01*
X01239513D01*
X01242052Y00982982D01*
X01226817Y00993138D02*
X01224277Y00995677D01*
X01219199D01*
X0121666Y00993138D01*
Y00990599D01*
X01219199Y0098806D01*
X01221738D01*
X01219199D01*
X0121666Y00985521D01*
Y00982982D01*
X01219199Y00980443D01*
X01224277D01*
X01226817Y00982982D01*
X01201425Y00980443D02*
X01211582D01*
X01201425Y00990599D01*
Y00993138D01*
X01203964Y00995677D01*
X01209042D01*
X01211582Y00993138D01*
X01196347D02*
X01193807Y00995677D01*
X01188729D01*
X0118619Y00993138D01*
Y00990599D01*
X01188729Y0098806D01*
X01191268D01*
X01188729D01*
X0118619Y00985521D01*
Y00982982D01*
X01188729Y00980443D01*
X01193807D01*
X01196347Y00982982D01*
X01181112Y00980443D02*
X01176033D01*
X01178572D01*
Y00995677D01*
X01181112Y00993138D01*
X01300478Y00407688D02*
X01303017Y00405149D01*
Y0040007D01*
X01300478Y00397531D01*
X01297939D01*
X012954Y0040007D01*
Y00405149D01*
X01292861Y00407688D01*
X01290322D01*
X01287782Y00405149D01*
Y0040007D01*
X01290322Y00397531D01*
X01303017Y00412766D02*
Y00417844D01*
Y00415305D01*
X01287782D01*
Y00412766D01*
Y00417844D01*
Y00425462D02*
X01303017D01*
X01297939Y0043054D01*
X01303017Y00435619D01*
X01287782D01*
Y00440697D02*
X01297939D01*
X01303017Y00445775D01*
X01297939Y00450854D01*
X01287782D01*
X012954D01*
Y00440697D01*
X01303017Y00455932D02*
Y00466089D01*
X01300478D01*
X01290322Y00455932D01*
X01287782D01*
X01303017Y00481324D02*
X01300478Y00476245D01*
X012954Y00471167D01*
X01290322D01*
X01287782Y00473706D01*
Y00478785D01*
X01290322Y00481324D01*
X01292861D01*
X012954Y00478785D01*
Y00471167D01*
X01300478Y00486402D02*
X01303017Y00488941D01*
Y0049402D01*
X01300478Y00496559D01*
X01297939D01*
X012954Y0049402D01*
X01292861Y00496559D01*
X01290322D01*
X01287782Y0049402D01*
Y00488941D01*
X01290322Y00486402D01*
X01292861D01*
X012954Y00488941D01*
X01297939Y00486402D01*
X01300478D01*
X012954Y00488941D02*
Y0049402D01*
X01287782Y00511794D02*
Y00501637D01*
X01297939Y00511794D01*
X01300478D01*
X01303017Y00509255D01*
Y00504176D01*
X01300478Y00501637D01*
Y00527029D02*
X01303017Y0052449D01*
Y00519412D01*
X01300478Y00516872D01*
X01297939D01*
X012954Y00519412D01*
Y0052449D01*
X01292861Y00527029D01*
X01290322D01*
X01287782Y0052449D01*
Y00519412D01*
X01290322Y00516872D01*
X00812787Y01156967D02*
X00807709D01*
X00810248D01*
Y01141732D01*
X00812787D01*
X00807709D01*
X00800091D02*
Y01156967D01*
X00789934Y01141732D01*
Y01156967D01*
X00784856Y01141732D02*
Y01151889D01*
X00779778Y01156967D01*
X00774699Y01151889D01*
Y01141732D01*
Y0114935D01*
X00784856D01*
X00759464Y01141732D02*
X00769621D01*
X00759464Y01151889D01*
Y01154428D01*
X00762003Y01156967D01*
X00767082D01*
X00769621Y01154428D01*
X00754386Y01141732D02*
X00749307D01*
X00751847D01*
Y01156967D01*
X00754386Y01154428D01*
X0074169Y01144272D02*
X00739151Y01141732D01*
X00734072D01*
X00731533Y01144272D01*
Y01154428D01*
X00734072Y01156967D01*
X00739151D01*
X0074169Y01154428D01*
Y01151889D01*
X00739151Y0114935D01*
X00731533D01*
X00735327Y00876298D02*
X00737866Y00878838D01*
X00742944D01*
X00745483Y00876298D01*
Y00866142D01*
X00742944Y00863603D01*
X00737866D01*
X00735327Y00866142D01*
Y0087122D01*
X00740405D01*
X00730248Y00863603D02*
Y00878838D01*
X00722631D01*
X00720092Y00876298D01*
Y0087122D01*
X00722631Y00868681D01*
X00730248D01*
X00704857Y00876298D02*
X00707396Y00878838D01*
X00712474D01*
X00715013Y00876298D01*
Y00873759D01*
X00712474Y0087122D01*
X00707396D01*
X00704857Y00868681D01*
Y00866142D01*
X00707396Y00863603D01*
X00712474D01*
X00715013Y00866142D01*
X00697228Y00591839D02*
X00681992D01*
Y00599456D01*
X00684532Y00601996D01*
X00694688D01*
X00697228Y00599456D01*
Y00591839D01*
Y00617231D02*
Y00607074D01*
X0068961D01*
Y00612152D01*
Y00607074D01*
X00681992D01*
Y00622309D02*
X00697228D01*
Y00629927D01*
X00694688Y00632466D01*
X0068961D01*
X00687071Y00629927D01*
Y00622309D01*
X00697228Y00637544D02*
X00681992D01*
Y00647701D01*
Y00652779D02*
X00692149D01*
X00697228Y00657858D01*
X00692149Y00662936D01*
X00681992D01*
X0068961D01*
Y00652779D01*
X00697228Y00668014D02*
X00694688D01*
X0068961Y00673093D01*
X00694688Y00678171D01*
X00697228D01*
X0068961Y00673093D02*
X00681992D01*
X00697228Y00693406D02*
Y00683249D01*
X00681992D01*
Y00693406D01*
X0068961Y00683249D02*
Y00688328D01*
X00681992Y00698484D02*
X00697228D01*
Y00706102D01*
X00694688Y00708641D01*
X0068961D01*
X00687071Y00706102D01*
Y00698484D01*
Y00703563D02*
X00681992Y00708641D01*
X0101344Y01212852D02*
Y01223009D01*
X01008362Y01228087D01*
X01003283Y01223009D01*
Y01212852D01*
Y0122047D01*
X0101344D01*
X00988048Y01225548D02*
X00990588Y01228087D01*
X00995666D01*
X00998205Y01225548D01*
Y01215391D01*
X00995666Y01212852D01*
X00990588D01*
X00988048Y01215391D01*
Y0122047D01*
X00993127D01*
X0098297Y01212852D02*
Y01228087D01*
X00975353D01*
X00972813Y01225548D01*
Y0122047D01*
X00975353Y0121793D01*
X0098297D01*
X00977892D02*
X00972813Y01212852D01*
X00967735Y01210313D02*
X00957578D01*
X009525Y01212852D02*
X00947422D01*
X00949961D01*
Y01228087D01*
X009525Y01225548D01*
X00929647Y01212852D02*
X00939804D01*
X00929647Y01223009D01*
Y01225548D01*
X00932187Y01228087D01*
X00937265D01*
X00939804Y01225548D01*
X00919491Y01212852D02*
X00924569Y0121793D01*
Y01223009D01*
X00919491Y01228087D01*
X00901716Y01212852D02*
X00911873D01*
X00901716Y01223009D01*
Y01225548D01*
X00904256Y01228087D01*
X00909334D01*
X00911873Y01225548D01*
X00896638Y01212852D02*
X0089156Y0121793D01*
Y01223009D01*
X00896638Y01228087D01*
X01015981Y01116332D02*
Y01126489D01*
X01010902Y01131567D01*
X01005824Y01126489D01*
Y01116332D01*
Y0112395D01*
X01015981D01*
X00990589Y01129028D02*
X00993128Y01131567D01*
X00998206D01*
X01000746Y01129028D01*
Y01118871D01*
X00998206Y01116332D01*
X00993128D01*
X00990589Y01118871D01*
Y0112395D01*
X00995667D01*
X0098551Y01116332D02*
Y01131567D01*
X00977893D01*
X00975354Y01129028D01*
Y0112395D01*
X00977893Y0112141D01*
X0098551D01*
X00980432D02*
X00975354Y01116332D01*
X00970275Y01113793D02*
X00960119D01*
X0095504Y01116332D02*
X00949962D01*
X00952501D01*
Y01131567D01*
X0095504Y01129028D01*
X00932188Y01116332D02*
X00942345D01*
X00932188Y01126489D01*
Y01129028D01*
X00934727Y01131567D01*
X00939805D01*
X00942345Y01129028D01*
X00922031Y01116332D02*
X00927109Y0112141D01*
Y01126489D01*
X00922031Y01131567D01*
X00914414Y01116332D02*
X00909335D01*
X00911874D01*
Y01131567D01*
X00914414Y01129028D01*
X00901718Y01116332D02*
X00896639Y0112141D01*
Y01126489D01*
X00901718Y01131567D01*
D13*
X0101854Y0097536D02*
X0117094D01*
X0101854Y0100076D02*
X0117094D01*
Y0097536D02*
Y0100076D01*
X0101854Y0097536D02*
Y0100076D01*
X0092329Y011706D02*
Y01196D01*
X0099949D01*
Y011706D02*
Y01196D01*
X0092329Y011706D02*
X0099949D01*
X0092329D02*
Y01196D01*
X0099949Y0107061D02*
Y0109601D01*
X0092329D02*
X0099949D01*
X0092329Y0107061D02*
Y0109601D01*
Y0107061D02*
X0099949D01*
Y0109601D01*
X0070358Y0059309D02*
Y0079629D01*
X0072898D01*
Y0059309D02*
Y0079629D01*
X0070358Y0059309D02*
X0072898D01*
X0125222Y0038481D02*
X0127762D01*
X0125222Y0053721D02*
X0127762D01*
X0125222Y0038481D02*
Y0053721D01*
X0127762Y0038481D02*
Y0053721D01*
X0082423Y0108331D02*
Y0110871D01*
X0072263D02*
X0082423D01*
X0072263Y0108331D02*
X0082423D01*
X0072263D02*
Y0110871D01*
X006985Y0085725D02*
Y0088265D01*
X005969D02*
X006985D01*
X005969Y0085725D02*
X006985D01*
X005969D02*
Y0088265D01*
M02*
