M48
;Layer_Color=9474304
;FILE_FORMAT=2:4
INCH,LZ
;TYPE=PLATED
T01F00S00C0.0310
T02F00S00C0.0320
T03F00S00C0.0354
T04F00S00C0.0360
T05F00S00C0.0500
T06F00S00C0.1220
%
T01
X0288Y015
X04725Y01575
Y01775
X0458Y0178
Y0158
X0288Y017
X02805Y0212
X02405
Y03585
Y0371
X02605
Y03585
X0253Y04315
X027
Y04515
X0253
X0365Y0411
Y03985
X0385
Y0411
T02
X02565Y0155
Y017
T03
X0498Y01565
Y01665
Y01765
Y01865
Y01965
Y02065
X0479Y0237
Y0247
Y0257
Y0267
Y0277
Y0287
Y0297
Y0307
X0282Y03085
Y02985
Y02885
Y02785
Y02685
Y02585
Y02485
Y02385
X027Y03425
X026
X025
X024
X02105Y03665
Y03765
Y03865
Y03965
Y04065
Y04165
X02315Y0431
Y0441
Y0451
Y0461
X02895Y04315
X02995
X03095
X03195
X03685Y04265
X03785
X03885
Y046587
X03785
X03685
X0406Y0389
X0416
X0426
X0436
X0446
X0456
X0479Y0367
Y0357
Y0347
Y0337
Y0327
Y0317
T04
X0412Y017173
Y018223
Y019223
Y020223
Y021223
Y022223
Y023223
Y024223
Y025223
Y026223
Y027223
Y028223
Y029223
Y030223
Y031223
X0312Y0312
Y0302
Y0292
Y0282
Y0272
Y0262
Y0252
Y0242
Y0232
Y0222
Y0212
Y0202
Y0192
Y0182
Y0172
Y0322
Y0332
Y0342
Y0352
X0412Y035223
Y034223
Y033223
Y032223
T05
X0209Y01505
Y01705
X02085Y0219
Y0239
X0209Y0291
Y0311
T06
X01965Y01245
X05085Y0124
X05075Y04775
X0196
M30
