G04*
G04 #@! TF.GenerationSoftware,Altium Limited,Altium Designer,24.1.2 (44)*
G04*
G04 Layer_Color=2752767*
%FSTAX44Y44*%
%MOMM*%
G71*
G04*
G04 #@! TF.SameCoordinates,C7039DF5-E853-41F3-B9AB-9B0EBC08B061*
G04*
G04*
G04 #@! TF.FilePolarity,Positive*
G04*
G01*
G75*
%ADD36C,0.1270*%
%ADD37C,0.1693*%
D36*
X0070739Y005334D02*
Y0054356D01*
X0071755D01*
Y005334D01*
X0070739D01*
X0060579D02*
Y0054356D01*
X0061595D01*
Y005334D01*
X0060579D01*
X0064897Y0042926D02*
Y0042672D01*
X0065405D01*
Y0042926D01*
X0065659D01*
Y0043434D01*
X0065405D01*
Y0043688D01*
X0064897D01*
Y0043434D01*
X0064643D01*
Y0042926D01*
X0064897D01*
Y0039116D02*
Y0038862D01*
X0065405D01*
Y0039116D01*
X0065659D01*
Y0039624D01*
X0065405D01*
Y0039878D01*
X0064897D01*
Y0039624D01*
X0064643D01*
Y0039116D01*
X0064897D01*
X0079248Y00889D02*
X007874Y0089916D01*
X0079756D01*
X0079248Y00889D01*
Y008636D02*
X007874Y0087376D01*
X0079756D01*
X0079248Y008636D01*
Y008382D02*
X007874Y0084836D01*
X0079756D01*
X0079248Y008382D01*
Y008128D02*
X007874Y0082296D01*
X0079756D01*
X0079248Y008128D01*
Y007874D02*
X007874Y0079756D01*
X0079756D01*
X0079248Y007874D01*
Y00762D02*
X007874Y0077216D01*
X0079756D01*
X0079248Y00762D01*
Y007366D02*
X007874Y0074676D01*
X0079756D01*
X0079248Y007366D01*
Y007112D02*
X007874Y0072136D01*
X0079756D01*
X0079248Y007112D01*
Y006858D02*
X007874Y0069596D01*
X0079756D01*
X0079248Y006858D01*
Y006604D02*
X007874Y0067056D01*
X0079756D01*
X0079248Y006604D01*
Y00635D02*
X007874Y0064516D01*
X0079756D01*
X0079248Y00635D01*
Y006096D02*
X007874Y0061976D01*
X0079756D01*
X0079248Y006096D01*
Y005842D02*
X007874Y0059436D01*
X0079756D01*
X0079248Y005842D01*
Y005588D02*
X007874Y0056896D01*
X0079756D01*
X0079248Y005588D01*
Y005334D02*
X007874Y0054356D01*
X0079756D01*
X0079248Y005334D01*
Y00508D02*
X007874Y0051816D01*
X0079756D01*
X0079248Y00508D01*
Y004826D02*
X007874Y0049276D01*
X0079756D01*
X0079248Y004826D01*
Y004572D02*
X007874Y0046736D01*
X0079756D01*
X0079248Y004572D01*
Y004318D02*
X007874Y0044196D01*
X0079756D01*
X0079248Y004318D01*
X0104648Y0043112D02*
X010414Y00441281D01*
X0105156D01*
X0104648Y0043112D01*
Y0045779D02*
X010414Y00467951D01*
X0105156D01*
X0104648Y0045779D01*
Y0048319D02*
X010414Y0049335D01*
X0105156D01*
X0104648Y0048319D01*
Y00508591D02*
X010414Y0051875D01*
X0105156D01*
X0104648Y00508591D01*
Y00533991D02*
X010414Y00544151D01*
X0105156D01*
X0104648Y00533991D01*
Y0055939D02*
X010414Y00569551D01*
X0105156D01*
X0104648Y0055939D01*
Y0058479D02*
X010414Y0059495D01*
X0105156D01*
X0104648Y0058479D01*
Y00610191D02*
X010414Y0062035D01*
X0105156D01*
X0104648Y00610191D01*
Y00635591D02*
X010414Y00645751D01*
X0105156D01*
X0104648Y00635591D01*
Y00660991D02*
X010414Y00671151D01*
X0105156D01*
X0104648Y00660991D01*
Y00686391D02*
X010414Y00696551D01*
X0105156D01*
X0104648Y00686391D01*
Y0071179D02*
X010414Y00721951D01*
X0105156D01*
X0104648Y0071179D01*
Y0073719D02*
X010414Y0074735D01*
X0105156D01*
X0104648Y0073719D01*
Y0076259D02*
X010414Y0077275D01*
X0105156D01*
X0104648Y0076259D01*
Y0078799D02*
X010414Y0079815D01*
X0105156D01*
X0104648Y0078799D01*
Y00813391D02*
X010414Y0082355D01*
X0105156D01*
X0104648Y00813391D01*
Y00838791D02*
X010414Y00848951D01*
X0105156D01*
X0104648Y00838791D01*
Y00864191D02*
X010414Y00874351D01*
X0105156D01*
X0104648Y00864191D01*
Y00889591D02*
X010414Y00899751D01*
X0105156D01*
X0104648Y00889591D01*
X0115824Y0044704D02*
Y004572D01*
X011684D01*
Y0044704D01*
X0115824D01*
Y0039624D02*
Y004064D01*
X011684D01*
Y0039624D01*
X0115824D01*
X0119507Y0044577D02*
Y0045593D01*
X0120523D01*
Y0044577D01*
X0119507D01*
Y0039497D02*
Y0040513D01*
X0120523D01*
Y0039497D01*
X0119507D01*
X0053086Y0042799D02*
X005334Y0043053D01*
X0053594D01*
X005334Y0043307D01*
X0053594Y0043561D01*
X005334D01*
X0053086Y0043815D01*
X0052832Y0043561D01*
X0052578D01*
X0052832Y0043307D01*
X0052578Y0043053D01*
X0052832D01*
X0053086Y0042799D01*
Y0037719D02*
X005334Y0037973D01*
X0053594D01*
X005334Y0038227D01*
X0053594Y0038481D01*
X005334D01*
X0053086Y0038735D01*
X0052832Y0038481D01*
X0052578D01*
X0052832Y0038227D01*
X0052578Y0037973D01*
X0052832D01*
X0053086Y0037719D01*
X0065659Y0090551D02*
Y0091567D01*
X0066675D01*
Y0090551D01*
X0065659D01*
X0060579D02*
Y0091567D01*
X0061595D01*
Y0090551D01*
X0060579D01*
X0128651Y0030988D02*
Y0032004D01*
X0129667D01*
Y0030988D01*
X0128651D01*
X01288542Y00311912D02*
Y00318008D01*
X01294638D01*
Y00311912D01*
X01288542D01*
X0128397Y0120777D02*
Y0121793D01*
X0129413D01*
Y0120777D01*
X0128397D01*
X01286002Y01209802D02*
Y01215898D01*
X01292098D01*
Y01209802D01*
X01286002D01*
X0049276Y0120777D02*
Y0121793D01*
X0050292D01*
Y0120777D01*
X0049276D01*
X00494792Y01209802D02*
Y01215898D01*
X00500888D01*
Y01209802D01*
X00494792D01*
X0049403Y0031115D02*
Y0032131D01*
X0050419D01*
Y0031115D01*
X0049403D01*
X00496062Y00313182D02*
Y00319278D01*
X00502158D01*
Y00313182D01*
X00496062D01*
X0097282Y0100711D02*
Y0101727D01*
X0098298D01*
Y0100711D01*
X0097282D01*
X0092202D02*
Y0101727D01*
X0093218D01*
Y0100711D01*
X0092202D01*
X0097282Y0103886D02*
Y0104902D01*
X0098298D01*
Y0103886D01*
X0097282D01*
X0092202D02*
Y0104902D01*
X0093218D01*
Y0103886D01*
X0092202D01*
X0060579Y0093726D02*
Y0094742D01*
X0061595D01*
Y0093726D01*
X0060579D01*
X0065659D02*
Y0094742D01*
X0066675D01*
Y0093726D01*
X0065659D01*
X0052959Y0060198D02*
X0053213Y0060452D01*
X0053467D01*
X0053213Y0060706D01*
X0053467Y006096D01*
X0053213D01*
X0052959Y0061214D01*
X0052705Y006096D01*
X0052451D01*
X0052705Y0060706D01*
X0052451Y0060452D01*
X0052705D01*
X0052959Y0060198D01*
Y0055118D02*
X0053213Y0055372D01*
X0053467D01*
X0053213Y0055626D01*
X0053467Y005588D01*
X0053213D01*
X0052959Y0056134D01*
X0052705Y005588D01*
X0052451D01*
X0052705Y0055626D01*
X0052451Y0055372D01*
X0052705D01*
X0052959Y0055118D01*
X0072644Y0037592D02*
Y0038608D01*
X007366D01*
Y0037592D01*
X0072644D01*
Y0042672D02*
Y0043688D01*
X007366D01*
Y0042672D01*
X0072644D01*
X0053086Y0073406D02*
X005334Y007366D01*
X0053594D01*
X005334Y0073914D01*
X0053594Y0074168D01*
X005334D01*
X0053086Y0074422D01*
X0052832Y0074168D01*
X0052578D01*
X0052832Y0073914D01*
X0052578Y007366D01*
X0052832D01*
X0053086Y0073406D01*
Y0078486D02*
X005334Y007874D01*
X0053594D01*
X005334Y0078994D01*
X0053594Y0079248D01*
X005334D01*
X0053086Y0079502D01*
X0052832Y0079248D01*
X0052578D01*
X0052832Y0078994D01*
X0052578Y007874D01*
X0052832D01*
X0053086Y0078486D01*
X0068072Y0114173D02*
Y0115189D01*
X0069088D01*
Y0114173D01*
X0068072D01*
Y0109093D02*
Y0110109D01*
X0069088D01*
Y0109093D01*
X0068072D01*
X0063754Y0114173D02*
Y0115189D01*
X006477D01*
Y0114173D01*
X0063754D01*
Y0109093D02*
Y0110109D01*
X006477D01*
Y0109093D01*
X0063754D01*
D37*
X0103632Y0098806D02*
G03*
X0103632Y0098806I-0000508J0D01*
G01*
X0106172D02*
G03*
X0106172Y0098806I-0000508J0D01*
G01*
X0108712D02*
G03*
X0108712Y0098806I-0000508J0D01*
G01*
X0111252D02*
G03*
X0111252Y0098806I-0000508J0D01*
G01*
X0113792D02*
G03*
X0113792Y0098806I-0000508J0D01*
G01*
X0116332D02*
G03*
X0116332Y0098806I-0000508J0D01*
G01*
X0094107Y011833D02*
G03*
X0094107Y011833I-0000508J0D01*
G01*
X0096647D02*
G03*
X0096647Y011833I-0000508J0D01*
G01*
X0099187D02*
G03*
X0099187Y011833I-0000508J0D01*
G01*
X0094107Y0108331D02*
G03*
X0094107Y0108331I-0000508J0D01*
G01*
X0096647D02*
G03*
X0096647Y0108331I-0000508J0D01*
G01*
X0099187D02*
G03*
X0099187Y0108331I-0000508J0D01*
G01*
X0053975Y0093091D02*
G03*
X0053975Y0093091I-0000508J0D01*
G01*
Y0095631D02*
G03*
X0053975Y0095631I-0000508J0D01*
G01*
Y0098171D02*
G03*
X0053975Y0098171I-0000508J0D01*
G01*
Y0100711D02*
G03*
X0053975Y0100711I-0000508J0D01*
G01*
Y0103251D02*
G03*
X0053975Y0103251I-0000508J0D01*
G01*
Y0105791D02*
G03*
X0053975Y0105791I-0000508J0D01*
G01*
X0072136Y0060579D02*
G03*
X0072136Y0060579I-0000508J0D01*
G01*
Y0063119D02*
G03*
X0072136Y0063119I-0000508J0D01*
G01*
Y0065659D02*
G03*
X0072136Y0065659I-0000508J0D01*
G01*
Y0068199D02*
G03*
X0072136Y0068199I-0000508J0D01*
G01*
Y0070739D02*
G03*
X0072136Y0070739I-0000508J0D01*
G01*
Y0073279D02*
G03*
X0072136Y0073279I-0000508J0D01*
G01*
Y0075819D02*
G03*
X0072136Y0075819I-0000508J0D01*
G01*
Y0078359D02*
G03*
X0072136Y0078359I-0000508J0D01*
G01*
X0122174Y0093218D02*
G03*
X0122174Y0093218I-0000508J0D01*
G01*
Y0090678D02*
G03*
X0122174Y0090678I-0000508J0D01*
G01*
Y0088138D02*
G03*
X0122174Y0088138I-0000508J0D01*
G01*
Y0085598D02*
G03*
X0122174Y0085598I-0000508J0D01*
G01*
Y0083058D02*
G03*
X0122174Y0083058I-0000508J0D01*
G01*
Y0080518D02*
G03*
X0122174Y0080518I-0000508J0D01*
G01*
Y0077978D02*
G03*
X0122174Y0077978I-0000508J0D01*
G01*
Y0075438D02*
G03*
X0122174Y0075438I-0000508J0D01*
G01*
Y0072898D02*
G03*
X0122174Y0072898I-0000508J0D01*
G01*
Y0070358D02*
G03*
X0122174Y0070358I-0000508J0D01*
G01*
Y0067818D02*
G03*
X0122174Y0067818I-0000508J0D01*
G01*
Y0065278D02*
G03*
X0122174Y0065278I-0000508J0D01*
G01*
Y0062738D02*
G03*
X0122174Y0062738I-0000508J0D01*
G01*
Y0060198D02*
G03*
X0122174Y0060198I-0000508J0D01*
G01*
X0127Y0052451D02*
G03*
X0127Y0052451I-0000508J0D01*
G01*
Y0049911D02*
G03*
X0127Y0049911I-0000508J0D01*
G01*
Y0047371D02*
G03*
X0127Y0047371I-0000508J0D01*
G01*
Y0044831D02*
G03*
X0127Y0044831I-0000508J0D01*
G01*
Y0042291D02*
G03*
X0127Y0042291I-0000508J0D01*
G01*
Y0039751D02*
G03*
X0127Y0039751I-0000508J0D01*
G01*
X0059309Y0109474D02*
G03*
X0059309Y0109474I-0000508J0D01*
G01*
Y0112014D02*
G03*
X0059309Y0112014I-0000508J0D01*
G01*
Y0114554D02*
G03*
X0059309Y0114554I-0000508J0D01*
G01*
Y0117094D02*
G03*
X0059309Y0117094I-0000508J0D01*
G01*
X0074041Y0109601D02*
G03*
X0074041Y0109601I-0000508J0D01*
G01*
X0076581D02*
G03*
X0076581Y0109601I-0000508J0D01*
G01*
X0079121D02*
G03*
X0079121Y0109601I-0000508J0D01*
G01*
X0081661D02*
G03*
X0081661Y0109601I-0000508J0D01*
G01*
X0061468Y0086995D02*
G03*
X0061468Y0086995I-0000508J0D01*
G01*
X0064008D02*
G03*
X0064008Y0086995I-0000508J0D01*
G01*
X0066548D02*
G03*
X0066548Y0086995I-0000508J0D01*
G01*
X0069088D02*
G03*
X0069088Y0086995I-0000508J0D01*
G01*
M02*
