G04*
G04 #@! TF.GenerationSoftware,Altium Limited,Altium Designer,24.1.2 (44)*
G04*
G04 Layer_Physical_Order=2*
G04 Layer_Color=16711680*
%FSTAX44Y44*%
%MOMM*%
G71*
G04*
G04 #@! TF.SameCoordinates,C7039DF5-E853-41F3-B9AB-9B0EBC08B061*
G04*
G04*
G04 #@! TF.FilePolarity,Positive*
G04*
G01*
G75*
%ADD25C,0.8890*%
%ADD26O,2.2000X1.6000*%
%ADD27R,2.5400X1.7780*%
%ADD28O,2.5400X1.7780*%
%ADD29O,2.0320X1.7780*%
%ADD30C,1.5000*%
%ADD31R,1.5000X1.5000*%
%ADD32C,1.7780*%
%ADD33C,2.7940*%
%ADD34R,1.5000X1.5000*%
%ADD35C,3.2000*%
G36*
X01312127Y00318179D02*
X01310857Y00318054D01*
X01310341Y00320648D01*
X01308871Y00324197D01*
X01306737Y00327391D01*
X01304021Y00330107D01*
X01300827Y00332241D01*
X01297278Y00333711D01*
X01293511Y0033446D01*
X01289669D01*
X01285902Y00333711D01*
X01282353Y00332241D01*
X01279159Y00330107D01*
X01276443Y00327391D01*
X01274309Y00324197D01*
X01272839Y00320648D01*
X0127209Y00316881D01*
Y00313039D01*
X01272839Y00309272D01*
X01274309Y00305723D01*
X01276443Y0030253D01*
X01279159Y00299813D01*
X01282353Y00297679D01*
X01285902Y00296209D01*
X01288496Y00295693D01*
X01288371Y00294423D01*
X00474763D01*
Y01232116D01*
X00490079D01*
X00490331Y01230846D01*
X00488603Y01230131D01*
X0048541Y01227997D01*
X00482693Y01225281D01*
X00480559Y01222087D01*
X00479089Y01218538D01*
X0047834Y01214771D01*
Y01210929D01*
X00479089Y01207162D01*
X00480559Y01203613D01*
X00482693Y01200419D01*
X0048541Y01197703D01*
X00488603Y01195569D01*
X00492152Y01194099D01*
X00495919Y0119335D01*
X00499761D01*
X00503528Y01194099D01*
X00507077Y01195569D01*
X00510271Y01197703D01*
X00512987Y01200419D01*
X00515121Y01203613D01*
X00516591Y01207162D01*
X0051734Y01210929D01*
Y01214771D01*
X00516591Y01218538D01*
X00515121Y01222087D01*
X00512987Y01225281D01*
X00510271Y01227997D01*
X00507077Y01230131D01*
X00505349Y01230846D01*
X00505601Y01232116D01*
X01281289Y01232117D01*
X01281542Y01230847D01*
X01279813Y01230131D01*
X01276619Y01227997D01*
X01273903Y01225281D01*
X01271769Y01222087D01*
X01270299Y01218538D01*
X0126955Y01214771D01*
Y01210929D01*
X01270299Y01207162D01*
X01271769Y01203613D01*
X01273903Y01200419D01*
X01276619Y01197703D01*
X01279813Y01195569D01*
X01283362Y01194099D01*
X01287129Y0119335D01*
X01290971D01*
X01294738Y01194099D01*
X01298287Y01195569D01*
X01301481Y01197703D01*
X01304197Y01200419D01*
X01306331Y01203613D01*
X01307801Y01207162D01*
X0130855Y01210929D01*
Y01214771D01*
X01307801Y01218538D01*
X01306331Y01222087D01*
X01304197Y01225281D01*
X01301481Y01227997D01*
X01298287Y01230131D01*
X01296558Y01230847D01*
X01296811Y01232117D01*
X01312127D01*
Y00318179D01*
D02*
G37*
%LPC*%
G36*
X00988238Y011943D02*
X00985342D01*
X00982544Y0119355D01*
X00980036Y01192102D01*
X00977988Y01190054D01*
X0097654Y01187546D01*
X0097579Y01184748D01*
Y01181852D01*
X0097654Y01179054D01*
X00977988Y01176546D01*
X00980036Y01174498D01*
X00982544Y0117305D01*
X00985342Y011723D01*
X00988238D01*
X00991036Y0117305D01*
X00993544Y01174498D01*
X00995592Y01176546D01*
X0099704Y01179054D01*
X0099779Y01181852D01*
Y01184748D01*
X0099704Y01187546D01*
X00995592Y01190054D01*
X00993544Y01192102D01*
X00991036Y0119355D01*
X00988238Y011943D01*
D02*
G37*
G36*
X00589332Y0118098D02*
X0058928D01*
Y0117221D01*
X0059805D01*
Y01172262D01*
X00597366Y01174815D01*
X00596044Y01177105D01*
X00594175Y01178974D01*
X00591885Y01180296D01*
X00589332Y0118098D01*
D02*
G37*
G36*
X0058674D02*
X00586688D01*
X00584135Y01180296D01*
X00581845Y01178974D01*
X00579976Y01177105D01*
X00578654Y01174815D01*
X0057797Y01172262D01*
Y0117221D01*
X0058674D01*
Y0118098D01*
D02*
G37*
G36*
X0059805Y0116967D02*
X0058928D01*
Y011609D01*
X00589332D01*
X00591885Y01161584D01*
X00594175Y01162906D01*
X00596044Y01164775D01*
X00597366Y01167065D01*
X0059805Y01169618D01*
Y0116967D01*
D02*
G37*
G36*
X0058674D02*
X0057797D01*
Y01169618D01*
X00578654Y01167065D01*
X00579976Y01164775D01*
X00581845Y01162906D01*
X00584135Y01161584D01*
X00586688Y011609D01*
X0058674D01*
Y0116967D01*
D02*
G37*
G36*
X00687305Y0115824D02*
X0068707D01*
Y0114808D01*
X0069723D01*
Y01148315D01*
X00696451Y01151222D01*
X00694946Y01153828D01*
X00692818Y01155956D01*
X00690212Y01157461D01*
X00687305Y0115824D01*
D02*
G37*
G36*
X00644125D02*
X0064389D01*
Y0114808D01*
X0065405D01*
Y01148315D01*
X00653271Y01151222D01*
X00651766Y01153828D01*
X00649638Y01155956D01*
X00647032Y01157461D01*
X00644125Y0115824D01*
D02*
G37*
G36*
X0064135D02*
X00641115D01*
X00638208Y01157461D01*
X00635602Y01155956D01*
X00633474Y01153828D01*
X00631969Y01151222D01*
X0063119Y01148315D01*
Y0114808D01*
X0064135D01*
Y0115824D01*
D02*
G37*
G36*
X0068453D02*
X00684295D01*
X00681388Y01157461D01*
X00678782Y01155956D01*
X00676654Y01153828D01*
X00675149Y01151222D01*
X0067437Y01148315D01*
Y0114808D01*
X0068453D01*
Y0115824D01*
D02*
G37*
G36*
X0069723Y0114554D02*
X0068707D01*
Y0113538D01*
X00687305D01*
X00690212Y01136159D01*
X00692818Y01137664D01*
X00694946Y01139792D01*
X00696451Y01142398D01*
X0069723Y01145305D01*
Y0114554D01*
D02*
G37*
G36*
X0068453D02*
X0067437D01*
Y01145305D01*
X00675149Y01142398D01*
X00676654Y01139792D01*
X00678782Y01137664D01*
X00681388Y01136159D01*
X00684295Y0113538D01*
X0068453D01*
Y0114554D01*
D02*
G37*
G36*
X0065405D02*
X0064389D01*
Y0113538D01*
X00644125D01*
X00647032Y01136159D01*
X00649638Y01137664D01*
X00651766Y01139792D01*
X00653271Y01142398D01*
X0065405Y01145305D01*
Y0114554D01*
D02*
G37*
G36*
X0064135D02*
X0063119D01*
Y01145305D01*
X00631969Y01142398D01*
X00633474Y01139792D01*
X00635602Y01137664D01*
X00638208Y01136159D01*
X00641115Y0113538D01*
X0064135D01*
Y0114554D01*
D02*
G37*
G36*
X00787452Y0110605D02*
X007874D01*
Y0109728D01*
X0079617D01*
Y01097332D01*
X00795486Y01099885D01*
X00794164Y01102175D01*
X00792295Y01104044D01*
X00790005Y01105366D01*
X00787452Y0110605D01*
D02*
G37*
G36*
X0078486D02*
X00784808D01*
X00782255Y01105366D01*
X00779965Y01104044D01*
X00778096Y01102175D01*
X00776774Y01099885D01*
X0077609Y01097332D01*
Y0109728D01*
X0078486D01*
Y0110605D01*
D02*
G37*
G36*
X0079617Y0109474D02*
X007874D01*
Y0108597D01*
X00787452D01*
X00790005Y01086654D01*
X00792295Y01087976D01*
X00794164Y01089845D01*
X00795486Y01092135D01*
X0079617Y01094688D01*
Y0109474D01*
D02*
G37*
G36*
X0078486D02*
X0077609D01*
Y01094688D01*
X00776774Y01092135D01*
X00778096Y01089845D01*
X00779965Y01087976D01*
X00782255Y01086654D01*
X00784808Y0108597D01*
X0078486D01*
Y0109474D01*
D02*
G37*
G36*
X00962712Y0109335D02*
X0096266D01*
Y0108458D01*
X0097143D01*
Y01084632D01*
X00970746Y01087185D01*
X00969424Y01089475D01*
X00967555Y01091344D01*
X00965265Y01092666D01*
X00962712Y0109335D01*
D02*
G37*
G36*
X0096012D02*
X00960068D01*
X00957515Y01092666D01*
X00955225Y01091344D01*
X00953356Y01089475D01*
X00952034Y01087185D01*
X0095135Y01084632D01*
Y0108458D01*
X0096012D01*
Y0109335D01*
D02*
G37*
G36*
X0097143Y0108204D02*
X0096266D01*
Y0107327D01*
X00962712D01*
X00965265Y01073954D01*
X00967555Y01075276D01*
X00969424Y01077145D01*
X00970746Y01079435D01*
X0097143Y01081988D01*
Y0108204D01*
D02*
G37*
G36*
X0096012D02*
X0095135D01*
Y01081988D01*
X00952034Y01079435D01*
X00953356Y01077145D01*
X00955225Y01075276D01*
X00957515Y01073954D01*
X00960068Y0107327D01*
X0096012D01*
Y0108204D01*
D02*
G37*
G36*
X00989845Y01094379D02*
X00989324Y0109431D01*
X0097579D01*
Y0107231D01*
X0099779D01*
Y01085844D01*
X00997859Y01086365D01*
X0099779Y01086886D01*
Y0109431D01*
X00990366D01*
X00989845Y01094379D01*
D02*
G37*
G36*
X00937438Y0109431D02*
X00934542D01*
X00931744Y0109356D01*
X00929236Y01092112D01*
X00927188Y01090064D01*
X0092574Y01087556D01*
X0092499Y01084758D01*
Y01081862D01*
X0092574Y01079064D01*
X00927188Y01076556D01*
X00929236Y01074508D01*
X00931744Y0107306D01*
X00934542Y0107231D01*
X00937438D01*
X00940236Y0107306D01*
X00942744Y01074508D01*
X00944792Y01076556D01*
X0094624Y01079064D01*
X0094699Y01081862D01*
Y01084758D01*
X0094624Y01087556D01*
X00944792Y01090064D01*
X00942744Y01092112D01*
X00940236Y0109356D01*
X00937438Y0109431D01*
D02*
G37*
G36*
X00979405Y0105537D02*
X0097917D01*
Y0104521D01*
X0098933D01*
Y01045445D01*
X00988551Y01048352D01*
X00987046Y01050958D01*
X00984918Y01053086D01*
X00982312Y01054591D01*
X00979405Y0105537D01*
D02*
G37*
G36*
X0097663D02*
X00976395D01*
X00973488Y01054591D01*
X00970882Y01053086D01*
X00968754Y01050958D01*
X00967249Y01048352D01*
X0096647Y01045445D01*
Y0104521D01*
X0097663D01*
Y0105537D01*
D02*
G37*
G36*
X00536118Y0106891D02*
X00533222D01*
X00530424Y0106816D01*
X00527916Y01066712D01*
X00525868Y01064664D01*
X0052442Y01062156D01*
X0052367Y01059358D01*
Y01056462D01*
X0052442Y01053664D01*
X00525868Y01051156D01*
X00527916Y01049108D01*
X00530424Y0104766D01*
X00533222Y0104691D01*
X00534337D01*
X00537891Y01043356D01*
X00537234Y01042217D01*
X00535992Y0104255D01*
X0053594D01*
Y0103378D01*
X0054471D01*
Y01033832D01*
X00544377Y01035074D01*
X00545516Y01035731D01*
X00553134Y01028114D01*
X00554793Y0102684D01*
X00556726Y0102604D01*
X005588Y01025767D01*
X00841103D01*
X00841617Y01025253D01*
Y00779947D01*
X00807432Y00745763D01*
X00806045Y00746099D01*
X00805815Y0074688D01*
X00822276Y00763341D01*
X0082355Y00765001D01*
X00824351Y00766934D01*
X00824623Y00769008D01*
Y009779D01*
X00824351Y00979974D01*
X0082355Y00981907D01*
X00822276Y00983566D01*
X00800686Y01005156D01*
X00799027Y0100643D01*
X00797094Y01007231D01*
X0079502Y01007504D01*
X0060325D01*
X00601176Y01007231D01*
X00599243Y0100643D01*
X00597584Y01005156D01*
X00546696Y00954269D01*
X00546665Y00954287D01*
X0054567Y00955039D01*
Y00957758D01*
X0054492Y00960556D01*
X00543472Y00963064D01*
X00541424Y00965112D01*
X00538916Y0096656D01*
X00536118Y0096731D01*
X00533222D01*
X00530424Y0096656D01*
X00527916Y00965112D01*
X00525868Y00963064D01*
X0052442Y00960556D01*
X0052367Y00957758D01*
Y00954862D01*
X0052442Y00952064D01*
X00525868Y00949556D01*
X00527916Y00947508D01*
X00530424Y0094606D01*
X00533222Y0094531D01*
X00535941D01*
X00536693Y00944315D01*
X00536711Y00944284D01*
X00534337Y0094191D01*
X0052367D01*
Y0091991D01*
X0054567D01*
Y00930577D01*
X00606569Y00991477D01*
X00791701D01*
X00808596Y00974581D01*
Y00772327D01*
X00806994Y00770725D01*
X00805518Y00771045D01*
X00804573Y00773328D01*
X00802587Y00775917D01*
X00799998Y00777903D01*
X00796984Y00779151D01*
Y00780409D01*
X00799998Y00781657D01*
X00802587Y00783643D01*
X00804573Y00786232D01*
X00805821Y00789246D01*
X00806247Y0079248D01*
X00805821Y00795714D01*
X00804573Y00798728D01*
X00802587Y00801317D01*
X00799998Y00803303D01*
X00796984Y00804551D01*
Y00805809D01*
X00799998Y00807057D01*
X00802587Y00809043D01*
X00804573Y00811631D01*
X00805821Y00814646D01*
X00806247Y0081788D01*
X00805821Y00821114D01*
X00804573Y00824128D01*
X00802587Y00826717D01*
X00799998Y00828703D01*
X00796984Y00829951D01*
Y00831209D01*
X00799998Y00832457D01*
X00802587Y00834443D01*
X00804573Y00837031D01*
X00805821Y00840046D01*
X00806247Y0084328D01*
X00805821Y00846514D01*
X00804573Y00849529D01*
X00802587Y00852117D01*
X00799998Y00854103D01*
X00796984Y00855351D01*
Y00856609D01*
X00799998Y00857857D01*
X00802587Y00859843D01*
X00804573Y00862431D01*
X00805821Y00865446D01*
X00806247Y0086868D01*
X00805821Y00871914D01*
X00804573Y00874929D01*
X00802587Y00877517D01*
X00799998Y00879503D01*
X00796984Y00880751D01*
Y00882009D01*
X00799998Y00883257D01*
X00802587Y00885243D01*
X00804573Y00887831D01*
X00805821Y00890846D01*
X00806247Y0089408D01*
X00805821Y00897314D01*
X00804573Y00900329D01*
X00802587Y00902917D01*
X00799998Y00904903D01*
X00796984Y00906151D01*
X0079375Y00906577D01*
X0079121D01*
X00787976Y00906151D01*
X00784961Y00904903D01*
X00782373Y00902917D01*
X00780387Y00900329D01*
X00779139Y00897314D01*
X00778713Y0089408D01*
X00779139Y00890846D01*
X00780387Y00887831D01*
X00782373Y00885243D01*
X00784961Y00883257D01*
X00787975Y00882009D01*
Y00880751D01*
X00784961Y00879503D01*
X00782373Y00877517D01*
X00780387Y00874929D01*
X00779139Y00871914D01*
X00778713Y0086868D01*
X00779139Y00865446D01*
X00780387Y00862431D01*
X00782373Y00859843D01*
X00784961Y00857857D01*
X00787975Y00856609D01*
Y00855351D01*
X00784961Y00854103D01*
X00782373Y00852117D01*
X00780387Y00849529D01*
X00779139Y00846514D01*
X00778713Y0084328D01*
X00779139Y00840046D01*
X00780387Y00837031D01*
X00782373Y00834443D01*
X00784961Y00832457D01*
X00787975Y00831209D01*
Y00829951D01*
X00784961Y00828703D01*
X00782373Y00826717D01*
X00780387Y00824128D01*
X00779139Y00821114D01*
X00778713Y0081788D01*
X00779139Y00814646D01*
X00780387Y00811631D01*
X00782373Y00809043D01*
X00784961Y00807057D01*
X00787975Y00805809D01*
Y00804551D01*
X00784961Y00803303D01*
X00782373Y00801317D01*
X00780387Y00798728D01*
X00779139Y00795714D01*
X00778713Y0079248D01*
X00779139Y00789246D01*
X00780387Y00786232D01*
X00782373Y00783643D01*
X00784961Y00781657D01*
X00787975Y00780409D01*
Y00779151D01*
X00784961Y00777903D01*
X00782373Y00775917D01*
X00780387Y00773328D01*
X00779139Y00770314D01*
X00778713Y0076708D01*
X00779139Y00763846D01*
X00780387Y00760832D01*
X00782373Y00758243D01*
X00784961Y00756257D01*
X00787975Y00755009D01*
Y00753751D01*
X00784961Y00752503D01*
X00782373Y00750517D01*
X00780387Y00747928D01*
X00779139Y00744914D01*
X00778713Y0074168D01*
X00779139Y00738446D01*
X00780387Y00735432D01*
X00782373Y00732843D01*
X00784961Y00730857D01*
X00787975Y00729609D01*
Y00728351D01*
X00784961Y00727103D01*
X00782373Y00725117D01*
X00780387Y00722529D01*
X00779139Y00719514D01*
X00778713Y0071628D01*
X00779139Y00713046D01*
X00779222Y00712845D01*
X00778146Y00712125D01*
X00773823Y00716447D01*
Y00839342D01*
X0077355Y00841416D01*
X0077275Y00843349D01*
X00771476Y00845009D01*
X00766269Y00850216D01*
X00764609Y0085149D01*
X00762676Y0085229D01*
X00760602Y00852563D01*
X00668927D01*
X00668413Y00853077D01*
Y00862407D01*
X00669202Y00863196D01*
X0067065Y00865704D01*
X006714Y00868502D01*
Y00871398D01*
X0067065Y00874196D01*
X00669202Y00876704D01*
X00667154Y00878752D01*
X00664646Y008802D01*
X00661848Y0088095D01*
X00658952D01*
X00656154Y008802D01*
X00653646Y00878752D01*
X00651598Y00876704D01*
X0065015Y00874196D01*
X006494Y00871398D01*
Y00868502D01*
X0065015Y00865704D01*
X00651598Y00863196D01*
X00652386Y00862407D01*
Y00849758D01*
X0065266Y00847684D01*
X0065346Y00845751D01*
X00654734Y00844091D01*
X00659941Y00838884D01*
X00661601Y0083761D01*
X00663534Y00836809D01*
X00665608Y00836536D01*
X00757283D01*
X00757796Y00836023D01*
Y00713128D01*
X0075807Y00711054D01*
X0075887Y00709121D01*
X00760144Y00707461D01*
X00779007Y00688598D01*
X00779059Y00687585D01*
X00777996Y00686875D01*
X00752234Y00712637D01*
Y00819022D01*
X00751961Y00821096D01*
X0075116Y00823029D01*
X00749886Y00824689D01*
X00744679Y00829896D01*
X00743019Y0083117D01*
X00741086Y00831971D01*
X00739012Y00832243D01*
X00662449D01*
X00643014Y00851679D01*
Y00862407D01*
X00643802Y00863196D01*
X0064525Y00865704D01*
X00646Y00868502D01*
Y00871398D01*
X0064525Y00874196D01*
X00643802Y00876704D01*
X00641754Y00878752D01*
X00639246Y008802D01*
X00636448Y0088095D01*
X00633552D01*
X00630754Y008802D01*
X00628246Y00878752D01*
X00626198Y00876704D01*
X0062475Y00874196D01*
X00624Y00871398D01*
Y00868502D01*
X0062475Y00865704D01*
X00626198Y00863196D01*
X00626987Y00862407D01*
Y0084836D01*
X00627259Y00846286D01*
X0062806Y00844353D01*
X00629334Y00842694D01*
X00653464Y00818564D01*
X00655123Y0081729D01*
X00657056Y00816489D01*
X0065913Y00816217D01*
X00735693D01*
X00736207Y00815703D01*
Y00709318D01*
X00736479Y00707244D01*
X0073728Y00705311D01*
X00738554Y00703651D01*
X00776566Y00665639D01*
X00775973Y00664436D01*
X007747Y00664604D01*
X00723823D01*
X00723034Y00665392D01*
X00720526Y0066684D01*
X00717728Y0066759D01*
X00714832D01*
X00712034Y0066684D01*
X00709526Y00665392D01*
X00707478Y00663344D01*
X0070603Y00660836D01*
X0070528Y00658038D01*
Y00655142D01*
X0070603Y00652344D01*
X00707478Y00649836D01*
X00709526Y00647788D01*
X00712034Y0064634D01*
X00714832Y0064559D01*
X00717728D01*
X00720526Y0064634D01*
X00723034Y00647788D01*
X00723823Y00648577D01*
X00771381D01*
X00778848Y00641109D01*
X00778713Y0064008D01*
X00778794Y00639469D01*
X0077763Y00638576D01*
X00776774Y00638931D01*
X007747Y00639203D01*
X00723823D01*
X00723034Y00639992D01*
X00720526Y0064144D01*
X00717728Y0064219D01*
X00714832D01*
X00712034Y0064144D01*
X00709526Y00639992D01*
X00707478Y00637944D01*
X0070603Y00635436D01*
X0070528Y00632638D01*
Y00629742D01*
X0070603Y00626944D01*
X00707478Y00624436D01*
X00709526Y00622388D01*
X00712034Y0062094D01*
X00714832Y0062019D01*
X00717728D01*
X00720526Y0062094D01*
X00723034Y00622388D01*
X00723823Y00623176D01*
X00771381D01*
X00778848Y00615709D01*
X00778713Y0061468D01*
X00779139Y00611446D01*
X00780387Y00608432D01*
X00782373Y00605843D01*
X00784961Y00603857D01*
X00787975Y00602609D01*
Y00601351D01*
X00784961Y00600103D01*
X00782373Y00598117D01*
X00780387Y00595528D01*
X00779139Y00592514D01*
X00778713Y0058928D01*
X00779139Y00586046D01*
X00780387Y00583032D01*
X00782373Y00580443D01*
X00784961Y00578457D01*
X00787976Y00577209D01*
X0079121Y00576783D01*
X0079375D01*
X00796984Y00577209D01*
X00799998Y00578457D01*
X00802587Y00580443D01*
X00804573Y00583032D01*
X00805821Y00586046D01*
X00806247Y0058928D01*
X00805821Y00592514D01*
X00804573Y00595528D01*
X00802587Y00598117D01*
X00799998Y00600103D01*
X00796984Y00601351D01*
Y00602609D01*
X00799998Y00603857D01*
X00802587Y00605843D01*
X00804573Y00608432D01*
X00805821Y00611446D01*
X00806247Y0061468D01*
X00805821Y00617914D01*
X00804573Y00620928D01*
X00802587Y00623517D01*
X00799998Y00625503D01*
X00796984Y00626751D01*
Y00628009D01*
X00799998Y00629257D01*
X00802587Y00631243D01*
X00804573Y00633831D01*
X00805821Y00636846D01*
X00806247Y0064008D01*
X00805821Y00643314D01*
X00804573Y00646329D01*
X00802587Y00648917D01*
X00799998Y00650903D01*
X00796984Y00652151D01*
Y00653409D01*
X00799998Y00654657D01*
X00802587Y00656643D01*
X00804573Y00659231D01*
X00805821Y00662246D01*
X00806247Y0066548D01*
X00805821Y00668714D01*
X00804573Y00671729D01*
X00802587Y00674317D01*
X00799998Y00676303D01*
X00796984Y00677551D01*
Y00678809D01*
X00799998Y00680057D01*
X00802587Y00682043D01*
X00804573Y00684632D01*
X00805821Y00687646D01*
X00806247Y0069088D01*
X00805821Y00694114D01*
X00804573Y00697129D01*
X00802587Y00699717D01*
X00799998Y00701703D01*
X00796984Y00702951D01*
Y00704209D01*
X00799998Y00705457D01*
X00802587Y00707443D01*
X00804573Y00710032D01*
X00805821Y00713046D01*
X00806247Y0071628D01*
X00805821Y00719514D01*
X00805244Y00720909D01*
X00855296Y00770961D01*
X0085657Y00772621D01*
X00857371Y00774554D01*
X00857644Y00776628D01*
Y01028572D01*
X00857371Y01030646D01*
X0085657Y01032579D01*
X00855296Y01034239D01*
X00850089Y01039446D01*
X00848429Y0104072D01*
X00846496Y0104152D01*
X00844422Y01041794D01*
X00562119D01*
X0054567Y01058243D01*
Y01059358D01*
X0054492Y01062156D01*
X00543472Y01064664D01*
X00541424Y01066712D01*
X00538916Y0106816D01*
X00536118Y0106891D01*
D02*
G37*
G36*
X005334Y0104255D02*
X00533348D01*
X00530795Y01041866D01*
X00528505Y01040544D01*
X00526636Y01038675D01*
X00525314Y01036385D01*
X0052463Y01033832D01*
Y0103378D01*
X005334D01*
Y0104255D01*
D02*
G37*
G36*
X0098933Y0104267D02*
X0097917D01*
Y0103251D01*
X00979405D01*
X00982312Y01033289D01*
X00984918Y01034794D01*
X00987046Y01036922D01*
X00988551Y01039528D01*
X0098933Y01042435D01*
Y0104267D01*
D02*
G37*
G36*
X0097663D02*
X0096647D01*
Y01042435D01*
X00967249Y01039528D01*
X00968754Y01036922D01*
X00970882Y01034794D01*
X00973488Y01033289D01*
X00976395Y0103251D01*
X0097663D01*
Y0104267D01*
D02*
G37*
G36*
X00928731Y0105633D02*
X00925469D01*
X00922318Y01055486D01*
X00919492Y01053855D01*
X00917186Y01051548D01*
X00915554Y01048722D01*
X0091471Y01045571D01*
Y01042309D01*
X00915554Y01039158D01*
X00917186Y01036332D01*
X00919492Y01034025D01*
X00922318Y01032394D01*
X00925469Y0103155D01*
X00928731D01*
X00931882Y01032394D01*
X00934708Y01034025D01*
X00937014Y01036332D01*
X00938646Y01039158D01*
X0093949Y01042309D01*
Y01045571D01*
X00938646Y01048722D01*
X00937014Y01051548D01*
X00934708Y01053855D01*
X00931882Y01055486D01*
X00928731Y0105633D01*
D02*
G37*
G36*
X0054471Y0103124D02*
X0053594D01*
Y0102247D01*
X00535992D01*
X00538545Y01023154D01*
X00540835Y01024476D01*
X00542704Y01026345D01*
X00544026Y01028635D01*
X0054471Y01031188D01*
Y0103124D01*
D02*
G37*
G36*
X005334D02*
X0052463D01*
Y01031188D01*
X00525314Y01028635D01*
X00526636Y01026345D01*
X00528505Y01024476D01*
X00530795Y01023154D01*
X00533348Y0102247D01*
X005334D01*
Y0103124D01*
D02*
G37*
G36*
X00979405Y0102362D02*
X0097917D01*
Y0101346D01*
X0098933D01*
Y01013695D01*
X00988551Y01016602D01*
X00987046Y01019208D01*
X00984918Y01021336D01*
X00982312Y01022841D01*
X00979405Y0102362D01*
D02*
G37*
G36*
X0097663D02*
X00976395D01*
X00973488Y01022841D01*
X00970882Y01021336D01*
X00968754Y01019208D01*
X00967249Y01016602D01*
X0096647Y01013695D01*
Y0101346D01*
X0097663D01*
Y0102362D01*
D02*
G37*
G36*
X0098933Y0101092D02*
X0097917D01*
Y0100076D01*
X00979405D01*
X00982312Y01001539D01*
X00984918Y01003044D01*
X00987046Y01005172D01*
X00988551Y01007778D01*
X0098933Y01010685D01*
Y0101092D01*
D02*
G37*
G36*
X0097663D02*
X0096647D01*
Y01010685D01*
X00967249Y01007778D01*
X00968754Y01005172D01*
X00970882Y01003044D01*
X00973488Y01001539D01*
X00976395Y0100076D01*
X0097663D01*
Y0101092D01*
D02*
G37*
G36*
X00536118Y0101811D02*
X00533222D01*
X00530424Y0101736D01*
X00527916Y01015912D01*
X00525868Y01013864D01*
X0052442Y01011356D01*
X0052367Y01008558D01*
Y01005662D01*
X0052442Y01002864D01*
X00525868Y01000356D01*
X00527916Y00998308D01*
X00530424Y0099686D01*
X00533222Y0099611D01*
X00536118D01*
X00538916Y0099686D01*
X00541424Y00998308D01*
X00543472Y01000356D01*
X0054492Y01002864D01*
X0054567Y01005662D01*
Y01008558D01*
X0054492Y01011356D01*
X00543472Y01013864D01*
X00541424Y01015912D01*
X00538916Y0101736D01*
X00536118Y0101811D01*
D02*
G37*
G36*
X01032562Y009981D02*
X0103251D01*
Y0098933D01*
X0104128D01*
Y00989382D01*
X01040596Y00991935D01*
X01039274Y00994225D01*
X01037405Y00996094D01*
X01035115Y00997416D01*
X01032562Y009981D01*
D02*
G37*
G36*
X0102997D02*
X01029918D01*
X01027365Y00997416D01*
X01025075Y00996094D01*
X01023206Y00994225D01*
X01021884Y00991935D01*
X010212Y00989382D01*
Y0098933D01*
X0102997D01*
Y009981D01*
D02*
G37*
G36*
X00535992Y0099175D02*
X0053594D01*
Y0098298D01*
X0054471D01*
Y00983032D01*
X00544026Y00985585D01*
X00542704Y00987875D01*
X00540835Y00989744D01*
X00538545Y00991066D01*
X00535992Y0099175D01*
D02*
G37*
G36*
X005334D02*
X00533348D01*
X00530795Y00991066D01*
X00528505Y00989744D01*
X00526636Y00987875D01*
X00525314Y00985585D01*
X0052463Y00983032D01*
Y0098298D01*
X005334D01*
Y0099175D01*
D02*
G37*
G36*
X0104128Y0098679D02*
X0103251D01*
Y0097802D01*
X01032562D01*
X01035115Y00978704D01*
X01037405Y00980026D01*
X01039274Y00981895D01*
X01040596Y00984185D01*
X0104128Y00986738D01*
Y0098679D01*
D02*
G37*
G36*
X0102997D02*
X010212D01*
Y00986738D01*
X01021884Y00984185D01*
X01023206Y00981895D01*
X01025075Y00980026D01*
X01027365Y00978704D01*
X01029918Y0097802D01*
X0102997D01*
Y0098679D01*
D02*
G37*
G36*
X0116924Y0099906D02*
X0114724D01*
Y0097706D01*
X0116924D01*
Y0099906D01*
D02*
G37*
G36*
X01134288D02*
X01131392D01*
X01128594Y0099831D01*
X01126086Y00996862D01*
X01124038Y00994814D01*
X0112259Y00992306D01*
X0112184Y00989508D01*
Y00986612D01*
X0112259Y00983814D01*
X01124038Y00981306D01*
X01126086Y00979258D01*
X01128594Y0097781D01*
X01131392Y0097706D01*
X01134288D01*
X01137086Y0097781D01*
X01139594Y00979258D01*
X01141642Y00981306D01*
X0114309Y00983814D01*
X0114384Y00986612D01*
Y00989508D01*
X0114309Y00992306D01*
X01141642Y00994814D01*
X01139594Y00996862D01*
X01137086Y0099831D01*
X01134288Y0099906D01*
D02*
G37*
G36*
X01108888D02*
X01105992D01*
X01103194Y0099831D01*
X01100686Y00996862D01*
X01098638Y00994814D01*
X0109719Y00992306D01*
X0109644Y00989508D01*
Y00986612D01*
X0109719Y00983814D01*
X01098638Y00981306D01*
X01100686Y00979258D01*
X01103194Y0097781D01*
X01105992Y0097706D01*
X01108888D01*
X01111686Y0097781D01*
X01114194Y00979258D01*
X01116242Y00981306D01*
X0111769Y00983814D01*
X0111844Y00986612D01*
Y00989508D01*
X0111769Y00992306D01*
X01116242Y00994814D01*
X01114194Y00996862D01*
X01111686Y0099831D01*
X01108888Y0099906D01*
D02*
G37*
G36*
X0091914Y01208164D02*
X0084582D01*
X00843746Y0120789D01*
X00841813Y0120709D01*
X00840154Y01205816D01*
X00820349Y01186011D01*
X00819075Y01184352D01*
X00818275Y01182419D01*
X00818001Y01180345D01*
Y01109175D01*
X00818119Y0110828D01*
X00817005Y0110701D01*
X0080053D01*
Y0108501D01*
X00815188D01*
X00815674Y01083837D01*
X00814271Y01082433D01*
X00743328D01*
X00742399Y01083704D01*
X00742581Y01085087D01*
Y01087705D01*
X00744132Y01089256D01*
X0074558Y01091764D01*
X0074633Y01094562D01*
Y01097281D01*
X00747325Y01098033D01*
X00747356Y01098051D01*
X0074973Y01095677D01*
Y01094562D01*
X0075048Y01091764D01*
X00751928Y01089256D01*
X00753976Y01087208D01*
X00756484Y0108576D01*
X00759282Y0108501D01*
X00762178D01*
X00764976Y0108576D01*
X00767484Y01087208D01*
X00769532Y01089256D01*
X0077098Y01091764D01*
X0077173Y01094562D01*
Y01097458D01*
X0077098Y01100256D01*
X00769532Y01102764D01*
X00767484Y01104812D01*
X00764976Y0110626D01*
X00762178Y0110701D01*
X00761063D01*
X00738456Y01129616D01*
X00736797Y0113089D01*
X00734864Y01131691D01*
X0073279Y01131964D01*
X00716408D01*
X00714334Y01131691D01*
X00712401Y0113089D01*
X00710741Y01129616D01*
X00705534Y01124409D01*
X0070426Y01122749D01*
X00703459Y01120816D01*
X00703186Y01118742D01*
Y01092119D01*
X00694771Y01083704D01*
X00691805D01*
X00691464Y01084974D01*
X00693408Y01086096D01*
X00695714Y01088402D01*
X00697346Y01091228D01*
X0069819Y01094379D01*
Y01097641D01*
X00697346Y01100792D01*
X00695714Y01103618D01*
X00693408Y01105925D01*
X00690582Y01107556D01*
X00687431Y011084D01*
X00684169D01*
X00681018Y01107556D01*
X00678192Y01105925D01*
X00675885Y01103618D01*
X00674254Y01100792D01*
X0067341Y01097641D01*
Y01094379D01*
X00674254Y01091228D01*
X00675885Y01088402D01*
X00678192Y01086096D01*
X00680136Y01084974D01*
X00679795Y01083704D01*
X00648625D01*
X00648284Y01084974D01*
X00650228Y01086096D01*
X00652534Y01088402D01*
X00654166Y01091228D01*
X0065501Y01094379D01*
Y01097641D01*
X00654166Y01100792D01*
X00652534Y01103618D01*
X00650228Y01105925D01*
X00647402Y01107556D01*
X00644251Y011084D01*
X00640989D01*
X00637838Y01107556D01*
X00635012Y01105925D01*
X00632705Y01103618D01*
X00631074Y01100792D01*
X00630534Y01098775D01*
X00629117Y01098395D01*
X00620625Y01106887D01*
Y01120938D01*
X00620352Y01123012D01*
X00619552Y01124945D01*
X00618278Y01126605D01*
X0059901Y01145873D01*
Y01146988D01*
X0059826Y01149786D01*
X00596812Y01152294D01*
X00594764Y01154342D01*
X00592256Y0115579D01*
X00589458Y0115654D01*
X00586562D01*
X00583764Y0115579D01*
X00581256Y01154342D01*
X00579208Y01152294D01*
X0057776Y01149786D01*
X0057701Y01146988D01*
Y01144092D01*
X0057776Y01141294D01*
X00579208Y01138786D01*
X00581256Y01136738D01*
X00583764Y0113529D01*
X00586562Y0113454D01*
X00587677D01*
X00590051Y01132166D01*
X00590033Y01132135D01*
X00589281Y0113114D01*
X00586562D01*
X00583764Y0113039D01*
X00581256Y01128942D01*
X00579208Y01126894D01*
X0057776Y01124386D01*
X0057701Y01121588D01*
Y01120473D01*
X00556944Y01100406D01*
X0055567Y01098747D01*
X00554869Y01096814D01*
X00554596Y0109474D01*
Y01063118D01*
X00554869Y01061044D01*
X0055567Y01059111D01*
X00556944Y01057451D01*
X00562151Y01052244D01*
X00563811Y0105097D01*
X00565744Y0105017D01*
X00567818Y01049896D01*
X0070739D01*
X00709464Y0105017D01*
X00711397Y0105097D01*
X00713056Y01052244D01*
X00727219Y01066406D01*
X0081759D01*
X00819664Y0106668D01*
X00821597Y0106748D01*
X00823257Y01068754D01*
X00833641Y01079138D01*
X00834915Y01080798D01*
X00835715Y01082731D01*
X00835988Y01084805D01*
Y01107215D01*
X00835715Y01109289D01*
X00834915Y01111222D01*
X00834029Y01112377D01*
Y01177026D01*
X00849139Y01192137D01*
X00915821D01*
X0092499Y01182967D01*
Y011723D01*
X00935657D01*
X00957924Y01150034D01*
X00959583Y0114876D01*
X00961516Y0114796D01*
X0096359Y01147686D01*
X01073513D01*
X01074026Y01147173D01*
Y00995603D01*
X01073238Y00994814D01*
X0107179Y00992306D01*
X0107104Y00989508D01*
Y00986612D01*
X0107179Y00983814D01*
X01073238Y00981306D01*
X01075286Y00979258D01*
X01077794Y0097781D01*
X01080592Y0097706D01*
X01083488D01*
X01086286Y0097781D01*
X01088794Y00979258D01*
X01090842Y00981306D01*
X0109229Y00983814D01*
X0109304Y00986612D01*
Y00989508D01*
X0109229Y00992306D01*
X01090842Y00994814D01*
X01090053Y00995603D01*
Y01150492D01*
X01089781Y01152566D01*
X0108898Y01154499D01*
X01087706Y01156159D01*
X01082499Y01161366D01*
X01080839Y0116264D01*
X01078906Y0116344D01*
X01076832Y01163714D01*
X00966909D01*
X00959349Y01171274D01*
X00959367Y01171305D01*
X00960119Y011723D01*
X00962838D01*
X00965636Y0117305D01*
X00968144Y01174498D01*
X00970192Y01176546D01*
X0097164Y01179054D01*
X0097239Y01181852D01*
Y01184748D01*
X0097164Y01187546D01*
X00970192Y01190054D01*
X00968144Y01192102D01*
X00965636Y0119355D01*
X00962838Y011943D01*
X00959942D01*
X00957144Y0119355D01*
X00954636Y01192102D01*
X00952588Y01190054D01*
X0095114Y01187546D01*
X0095039Y01184748D01*
Y01182029D01*
X00949395Y01181277D01*
X00949364Y01181259D01*
X0094699Y01183633D01*
Y011943D01*
X00936323D01*
X00924806Y01205816D01*
X00923147Y0120709D01*
X00921214Y0120789D01*
X0091914Y01208164D01*
D02*
G37*
G36*
X01058088Y0099906D02*
X01055192D01*
X01052394Y0099831D01*
X01049886Y00996862D01*
X01047838Y00994814D01*
X0104639Y00992306D01*
X0104564Y00989508D01*
Y00986612D01*
X0104639Y00983814D01*
X01047838Y00981306D01*
X01049886Y00979258D01*
X01052394Y0097781D01*
X01055192Y0097706D01*
X01058088D01*
X01060886Y0097781D01*
X01063394Y00979258D01*
X01065442Y00981306D01*
X0106689Y00983814D01*
X0106764Y00986612D01*
Y00989508D01*
X0106689Y00992306D01*
X01065442Y00994814D01*
X01063394Y00996862D01*
X01060886Y0099831D01*
X01058088Y0099906D01*
D02*
G37*
G36*
X0054471Y0098044D02*
X0053594D01*
Y0097167D01*
X00535992D01*
X00538545Y00972354D01*
X00540835Y00973676D01*
X00542704Y00975545D01*
X00544026Y00977835D01*
X0054471Y00980388D01*
Y0098044D01*
D02*
G37*
G36*
X005334D02*
X0052463D01*
Y00980388D01*
X00525314Y00977835D01*
X00526636Y00975545D01*
X00528505Y00973676D01*
X00530795Y00972354D01*
X00533348Y0097167D01*
X005334D01*
Y0098044D01*
D02*
G37*
G36*
X00663175Y0095377D02*
X0066294D01*
Y0094361D01*
X006731D01*
Y00943845D01*
X00672321Y00946752D01*
X00670816Y00949358D01*
X00668688Y00951486D01*
X00666082Y00952991D01*
X00663175Y0095377D01*
D02*
G37*
G36*
X006604D02*
X00660165D01*
X00657258Y00952991D01*
X00654652Y00951486D01*
X00652524Y00949358D01*
X00651019Y00946752D01*
X0065024Y00943845D01*
Y0094361D01*
X006604D01*
Y0095377D01*
D02*
G37*
G36*
X006731Y0094107D02*
X0066294D01*
Y0093091D01*
X00663175D01*
X00666082Y00931689D01*
X00668688Y00933194D01*
X00670816Y00935322D01*
X00672321Y00937928D01*
X006731Y00940835D01*
Y0094107D01*
D02*
G37*
G36*
X006604D02*
X0065024D01*
Y00940835D01*
X00651019Y00937928D01*
X00652524Y00935322D01*
X00654652Y00933194D01*
X00657258Y00931689D01*
X00660165Y0093091D01*
X006604D01*
Y0094107D01*
D02*
G37*
G36*
X00612501Y0095473D02*
X00609239D01*
X00606088Y00953886D01*
X00603262Y00952254D01*
X00600956Y00949948D01*
X00599324Y00947122D01*
X0059848Y00943971D01*
Y00940709D01*
X00599324Y00937558D01*
X00600956Y00934732D01*
X00603262Y00932426D01*
X00606088Y00930794D01*
X00609239Y0092995D01*
X00612501D01*
X00615652Y00930794D01*
X00618478Y00932426D01*
X00620784Y00934732D01*
X00622416Y00937558D01*
X0062326Y00940709D01*
Y00943971D01*
X00622416Y00947122D01*
X00620784Y00949948D01*
X00618478Y00952254D01*
X00615652Y00953886D01*
X00612501Y0095473D01*
D02*
G37*
G36*
X0122766Y0094318D02*
X0120566D01*
Y0092118D01*
X0122766D01*
Y0094318D01*
D02*
G37*
G36*
X00663175Y0092202D02*
X0066294D01*
Y0091186D01*
X006731D01*
Y00912095D01*
X00672321Y00915002D01*
X00670816Y00917608D01*
X00668688Y00919736D01*
X00666082Y00921241D01*
X00663175Y0092202D01*
D02*
G37*
G36*
X006604D02*
X00660165D01*
X00657258Y00921241D01*
X00654652Y00919736D01*
X00652524Y00917608D01*
X00651019Y00915002D01*
X0065024Y00912095D01*
Y0091186D01*
X006604D01*
Y0092202D01*
D02*
G37*
G36*
X006731Y0090932D02*
X0066294D01*
Y0089916D01*
X00663175D01*
X00666082Y00899939D01*
X00668688Y00901444D01*
X00670816Y00903572D01*
X00672321Y00906178D01*
X006731Y00909085D01*
Y0090932D01*
D02*
G37*
G36*
X006604D02*
X0065024D01*
Y00909085D01*
X00651019Y00906178D01*
X00652524Y00903572D01*
X00654652Y00901444D01*
X00657258Y00899939D01*
X00660165Y0089916D01*
X006604D01*
Y0090932D01*
D02*
G37*
G36*
X00612501Y0092298D02*
X00609239D01*
X00606088Y00922136D01*
X00603262Y00920505D01*
X00600956Y00918198D01*
X00599324Y00915372D01*
X0059848Y00912221D01*
Y00908959D01*
X00599324Y00905808D01*
X00600956Y00902982D01*
X00603262Y00900676D01*
X00606088Y00899044D01*
X00609239Y008982D01*
X00612501D01*
X00615652Y00899044D01*
X00618478Y00900676D01*
X00620784Y00902982D01*
X00622416Y00905808D01*
X0062326Y00908959D01*
Y00912221D01*
X00622416Y00915372D01*
X00620784Y00918198D01*
X00618478Y00920505D01*
X00615652Y00922136D01*
X00612501Y0092298D01*
D02*
G37*
G36*
X0104775Y00906199D02*
Y0089594D01*
X01059111D01*
X01058886Y00897654D01*
X01057734Y00900435D01*
X01055902Y00902822D01*
X01053514Y00904655D01*
X01050734Y00905806D01*
X0104775Y00906199D01*
D02*
G37*
G36*
X0104521D02*
X01042226Y00905806D01*
X01039446Y00904655D01*
X01037058Y00902822D01*
X01035226Y00900435D01*
X01034074Y00897654D01*
X01033849Y0089594D01*
X0104521D01*
Y00906199D01*
D02*
G37*
G36*
X01218108Y0091778D02*
X01215212D01*
X01212414Y0091703D01*
X01209906Y00915582D01*
X01207858Y00913534D01*
X0120641Y00911026D01*
X0120566Y00908228D01*
Y00905332D01*
X0120641Y00902534D01*
X01207858Y00900026D01*
X01209906Y00897978D01*
X01212414Y0089653D01*
X01215212Y0089578D01*
X01218108D01*
X01220906Y0089653D01*
X01223414Y00897978D01*
X01225462Y00900026D01*
X0122691Y00902534D01*
X0122766Y00905332D01*
Y00908228D01*
X0122691Y00911026D01*
X01225462Y00913534D01*
X01223414Y00915582D01*
X01220906Y0091703D01*
X01218108Y0091778D01*
D02*
G37*
G36*
X01059111Y008934D02*
X0104775D01*
Y00883142D01*
X01050734Y00883535D01*
X01053514Y00884687D01*
X01055902Y00886519D01*
X01057734Y00888906D01*
X01058886Y00891687D01*
X01059111Y008934D01*
D02*
G37*
G36*
X0104521D02*
X01033849D01*
X01034074Y00891687D01*
X01035226Y00888906D01*
X01037058Y00886519D01*
X01039446Y00884687D01*
X01042226Y00883535D01*
X0104521Y00883142D01*
Y008934D01*
D02*
G37*
G36*
X0069584Y0087999D02*
X0068707D01*
Y0087122D01*
X0069584D01*
Y0087999D01*
D02*
G37*
G36*
X0068453D02*
X0067576D01*
Y0087122D01*
X0068453D01*
Y0087999D01*
D02*
G37*
G36*
X0069584Y0086868D02*
X0068707D01*
Y0085991D01*
X0069584D01*
Y0086868D01*
D02*
G37*
G36*
X0068453D02*
X0067576D01*
Y0085991D01*
X0068453D01*
Y0086868D01*
D02*
G37*
G36*
X00611048Y0088095D02*
X00608152D01*
X00605354Y008802D01*
X00602846Y00878752D01*
X00600798Y00876704D01*
X0059935Y00874196D01*
X005986Y00871398D01*
Y00868502D01*
X0059935Y00865704D01*
X00600798Y00863196D01*
X00602846Y00861148D01*
X00605354Y008597D01*
X00608152Y0085895D01*
X00611048D01*
X00613846Y008597D01*
X00616354Y00861148D01*
X00618402Y00863196D01*
X0061985Y00865704D01*
X006206Y00868502D01*
Y00871398D01*
X0061985Y00874196D01*
X00618402Y00876704D01*
X00616354Y00878752D01*
X00613846Y008802D01*
X00611048Y0088095D01*
D02*
G37*
G36*
X01218108Y0086698D02*
X01215212D01*
X01212414Y0086623D01*
X01209906Y00864782D01*
X01207858Y00862734D01*
X0120641Y00860226D01*
X0120566Y00857428D01*
Y00854532D01*
X0120641Y00851734D01*
X01207858Y00849226D01*
X01209906Y00847178D01*
X01212414Y0084573D01*
X01215212Y0084498D01*
X01218108D01*
X01220906Y0084573D01*
X01223414Y00847178D01*
X01225462Y00849226D01*
X0122691Y00851734D01*
X0122766Y00854532D01*
Y00857428D01*
X0122691Y00860226D01*
X01225462Y00862734D01*
X01223414Y00864782D01*
X01220906Y0086623D01*
X01218108Y0086698D01*
D02*
G37*
G36*
Y0084158D02*
X01215212D01*
X01212414Y0084083D01*
X01209906Y00839382D01*
X01207858Y00837334D01*
X0120641Y00834826D01*
X0120566Y00832028D01*
Y00829132D01*
X0120641Y00826334D01*
X01207858Y00823826D01*
X01209906Y00821778D01*
X01212414Y0082033D01*
X01215212Y0081958D01*
X01218108D01*
X01220906Y0082033D01*
X01223414Y00821778D01*
X01225462Y00823826D01*
X0122691Y00826334D01*
X0122766Y00829132D01*
Y00832028D01*
X0122691Y00834826D01*
X01225462Y00837334D01*
X01223414Y00839382D01*
X01220906Y0084083D01*
X01218108Y0084158D01*
D02*
G37*
G36*
Y0081618D02*
X01215212D01*
X01212414Y0081543D01*
X01209906Y00813982D01*
X01207858Y00811934D01*
X0120641Y00809426D01*
X0120566Y00806628D01*
Y00803732D01*
X0120641Y00800934D01*
X01207858Y00798426D01*
X01209906Y00796378D01*
X01212414Y0079493D01*
X01215212Y0079418D01*
X01218108D01*
X01220906Y0079493D01*
X01223414Y00796378D01*
X01225462Y00798426D01*
X0122691Y00800934D01*
X0122766Y00803732D01*
Y00806628D01*
X0122691Y00809426D01*
X01225462Y00811934D01*
X01223414Y00813982D01*
X01220906Y0081543D01*
X01218108Y0081618D01*
D02*
G37*
G36*
X0072728Y0079459D02*
X0070528D01*
Y0077259D01*
X0072728D01*
Y0079459D01*
D02*
G37*
G36*
X01218108Y0079078D02*
X01215212D01*
X01212414Y0079003D01*
X01209906Y00788582D01*
X01207858Y00786534D01*
X0120641Y00784026D01*
X0120566Y00781228D01*
Y00778332D01*
X0120641Y00775534D01*
X01207858Y00773026D01*
X01209906Y00770978D01*
X01212414Y0076953D01*
X01215212Y0076878D01*
X01218108D01*
X01220906Y0076953D01*
X01223414Y00770978D01*
X01225462Y00773026D01*
X0122691Y00775534D01*
X0122766Y00778332D01*
Y00781228D01*
X0122691Y00784026D01*
X01225462Y00786534D01*
X01223414Y00788582D01*
X01220906Y0079003D01*
X01218108Y0079078D01*
D02*
G37*
G36*
X00717602Y0076823D02*
X0071755D01*
Y0075946D01*
X0072632D01*
Y00759512D01*
X00725636Y00762065D01*
X00724314Y00764355D01*
X00722445Y00766224D01*
X00720155Y00767546D01*
X00717602Y0076823D01*
D02*
G37*
G36*
X0071501D02*
X00714958D01*
X00712405Y00767546D01*
X00710115Y00766224D01*
X00708246Y00764355D01*
X00706924Y00762065D01*
X0070624Y00759512D01*
Y0075946D01*
X0071501D01*
Y0076823D01*
D02*
G37*
G36*
X0125222Y00969404D02*
X0116332D01*
X01161246Y0096913D01*
X01159313Y0096833D01*
X01157654Y00967056D01*
X01067881Y00877284D01*
X01057218D01*
X01056587Y00878107D01*
X01053998Y00880093D01*
X01050984Y00881342D01*
X0104775Y00881768D01*
X0104521D01*
X01041976Y00881342D01*
X01038961Y00880093D01*
X01036373Y00878107D01*
X01034387Y00875519D01*
X01033139Y00872505D01*
X01032713Y0086927D01*
X01033139Y00866036D01*
X01034387Y00863022D01*
X01036373Y00860434D01*
X01038961Y00858448D01*
X01041975Y00857199D01*
Y00855942D01*
X01038961Y00854693D01*
X01036373Y00852707D01*
X01034387Y00850119D01*
X01033139Y00847105D01*
X01032713Y0084387D01*
X01033139Y00840636D01*
X01034387Y00837622D01*
X01036373Y00835034D01*
X01038961Y00833048D01*
X01041975Y00831799D01*
Y00830542D01*
X01038961Y00829293D01*
X01036373Y00827307D01*
X01034387Y00824719D01*
X01033139Y00821705D01*
X01032713Y00818471D01*
X01033139Y00815236D01*
X01034387Y00812222D01*
X01036373Y00809634D01*
X01038961Y00807648D01*
X01041975Y008064D01*
Y00805142D01*
X01038961Y00803893D01*
X01036373Y00801907D01*
X01034387Y00799319D01*
X01033139Y00796305D01*
X01032713Y00793071D01*
X01033139Y00789836D01*
X01034387Y00786822D01*
X01036373Y00784234D01*
X01038961Y00782248D01*
X01041975Y00781D01*
Y00779742D01*
X01038961Y00778493D01*
X01036373Y00776507D01*
X01034387Y00773919D01*
X01033139Y00770905D01*
X01032713Y00767671D01*
X01033139Y00764436D01*
X01034387Y00761422D01*
X01036373Y00758834D01*
X01038961Y00756848D01*
X01041975Y007556D01*
Y00754342D01*
X01038961Y00753093D01*
X01036373Y00751107D01*
X01034387Y00748519D01*
X01033139Y00745505D01*
X01032713Y00742271D01*
X01033139Y00739036D01*
X01034387Y00736022D01*
X01036373Y00733434D01*
X01038961Y00731448D01*
X01041975Y007302D01*
Y00728942D01*
X01038961Y00727693D01*
X01036373Y00725707D01*
X01034387Y00723119D01*
X01033139Y00720105D01*
X01032713Y0071687D01*
X01033139Y00713636D01*
X01034387Y00710622D01*
X01036373Y00708034D01*
X01038961Y00706048D01*
X01041975Y00704799D01*
Y00703542D01*
X01038961Y00702293D01*
X01036373Y00700307D01*
X01034387Y00697719D01*
X01033139Y00694705D01*
X01032713Y0069147D01*
X01033139Y00688236D01*
X01034387Y00685222D01*
X01036373Y00682634D01*
X01038961Y00680648D01*
X01041975Y00679399D01*
Y00678142D01*
X01038961Y00676893D01*
X01036373Y00674907D01*
X01034387Y00672319D01*
X01033139Y00669305D01*
X01032713Y0066607D01*
X01033139Y00662836D01*
X01034387Y00659822D01*
X01036373Y00657234D01*
X01038961Y00655248D01*
X01041975Y00653999D01*
Y00652742D01*
X01038961Y00651493D01*
X01036373Y00649507D01*
X01034387Y00646919D01*
X01033139Y00643905D01*
X01032713Y0064067D01*
X01033139Y00637436D01*
X01034387Y00634422D01*
X01036373Y00631834D01*
X01038961Y00629848D01*
X01041975Y006286D01*
Y00627342D01*
X01038961Y00626093D01*
X01036373Y00624107D01*
X01034387Y00621519D01*
X01033139Y00618505D01*
X01032713Y00615271D01*
X01033139Y00612036D01*
X01034387Y00609022D01*
X01036373Y00606434D01*
X01038961Y00604448D01*
X01041975Y006032D01*
Y00601942D01*
X01038961Y00600693D01*
X01036373Y00598707D01*
X01034387Y00596119D01*
X01033139Y00593105D01*
X01032713Y0058987D01*
X01033139Y00586636D01*
X01034387Y00583622D01*
X01036373Y00581034D01*
X01038961Y00579048D01*
X01041975Y00577799D01*
Y00576542D01*
X01038961Y00575293D01*
X01036373Y00573307D01*
X01034387Y00570719D01*
X01033139Y00567705D01*
X01032713Y0056447D01*
X01033139Y00561236D01*
X01034387Y00558222D01*
X01036373Y00555634D01*
X01038961Y00553648D01*
X01041975Y00552399D01*
Y00551142D01*
X01038961Y00549893D01*
X01036373Y00547907D01*
X01034387Y00545319D01*
X01033139Y00542305D01*
X01032713Y00539071D01*
X01033139Y00535836D01*
X01034387Y00532822D01*
X01036373Y00530234D01*
X01038961Y00528248D01*
X01041975Y00527D01*
Y00525742D01*
X01038961Y00524493D01*
X01036373Y00522507D01*
X01034387Y00519919D01*
X01033139Y00516905D01*
X01032713Y00513671D01*
X01033139Y00510436D01*
X01034387Y00507422D01*
X01036373Y00504834D01*
X01038961Y00502848D01*
X01041975Y005016D01*
Y00500342D01*
X01038961Y00499093D01*
X01036373Y00497107D01*
X01034387Y00494519D01*
X01033139Y00491505D01*
X01032713Y00488271D01*
X01033139Y00485036D01*
X01034387Y00482022D01*
X01036373Y00479434D01*
X01038961Y00477448D01*
X01041975Y00476199D01*
Y00474942D01*
X01038961Y00473693D01*
X01036373Y00471707D01*
X01034387Y00469119D01*
X01033139Y00466105D01*
X01032713Y00462871D01*
X01033139Y00459636D01*
X01034387Y00456622D01*
X01036373Y00454034D01*
X01038961Y00452048D01*
X01041976Y00450799D01*
X0104521Y00450374D01*
X0104775D01*
X01050984Y00450799D01*
X01053998Y00452048D01*
X01056587Y00454034D01*
X01058573Y00456622D01*
X01059821Y00459636D01*
X01060247Y00462871D01*
X01059821Y00466105D01*
X01058573Y00469119D01*
X01056587Y00471707D01*
X01053998Y00473693D01*
X01050984Y00474942D01*
Y00476199D01*
X01053998Y00477448D01*
X01056587Y00479434D01*
X01058573Y00482022D01*
X01059821Y00485036D01*
X01060247Y00488271D01*
X01059821Y00491505D01*
X01058573Y00494519D01*
X01056587Y00497107D01*
X01053998Y00499093D01*
X01050984Y00500342D01*
Y005016D01*
X01053998Y00502848D01*
X01056587Y00504834D01*
X01058573Y00507422D01*
X01059821Y00510436D01*
X01060247Y00513671D01*
X01059821Y00516905D01*
X01058573Y00519919D01*
X01056587Y00522507D01*
X01053998Y00524493D01*
X01050984Y00525742D01*
Y00527D01*
X01053998Y00528248D01*
X01056587Y00530234D01*
X01058573Y00532822D01*
X01059821Y00535836D01*
X01060247Y00539071D01*
X01059821Y00542305D01*
X01058573Y00545319D01*
X01056587Y00547907D01*
X01053998Y00549893D01*
X01050984Y00551142D01*
Y00552399D01*
X01053998Y00553648D01*
X01056587Y00555634D01*
X01058573Y00558222D01*
X01059821Y00561236D01*
X01060247Y0056447D01*
X01059821Y00567705D01*
X01058573Y00570719D01*
X01056587Y00573307D01*
X01053998Y00575293D01*
X01050984Y00576542D01*
Y00577799D01*
X01053998Y00579048D01*
X01056587Y00581034D01*
X01058573Y00583622D01*
X01059821Y00586636D01*
X01060247Y0058987D01*
X01059821Y00593105D01*
X01058573Y00596119D01*
X01056587Y00598707D01*
X01053998Y00600693D01*
X01050984Y00601942D01*
Y006032D01*
X01053998Y00604448D01*
X01056587Y00606434D01*
X01057218Y00607257D01*
X0106924D01*
X0125392Y00422577D01*
Y00421462D01*
X0125467Y00418664D01*
X01256118Y00416156D01*
X01258166Y00414108D01*
X01260674Y0041266D01*
X01263472Y0041191D01*
X01266368D01*
X01269166Y0041266D01*
X01271674Y00414108D01*
X01273722Y00416156D01*
X0127517Y00418664D01*
X0127592Y00421462D01*
Y00424358D01*
X0127517Y00427156D01*
X01273722Y00429664D01*
X01271674Y00431712D01*
X01269166Y0043316D01*
X01266368Y0043391D01*
X01265253D01*
X01262879Y00436284D01*
X01262897Y00436315D01*
X01263649Y0043731D01*
X01266368D01*
X01269166Y0043806D01*
X01271674Y00439508D01*
X01273722Y00441556D01*
X0127517Y00444064D01*
X0127592Y00446862D01*
Y00449758D01*
X0127517Y00452556D01*
X01273722Y00455064D01*
X01271674Y00457112D01*
X01269166Y0045856D01*
X01266368Y0045931D01*
X01265253D01*
X01262879Y00461684D01*
X01262897Y00461715D01*
X01263649Y0046271D01*
X01266368D01*
X01269166Y0046346D01*
X01271674Y00464908D01*
X01273722Y00466956D01*
X0127517Y00469464D01*
X0127592Y00472262D01*
Y00475158D01*
X0127517Y00477956D01*
X01273722Y00480464D01*
X01271674Y00482512D01*
X01269166Y0048396D01*
X01266368Y0048471D01*
X01263472D01*
X01260674Y0048396D01*
X01258166Y00482512D01*
X01256118Y00480464D01*
X0125467Y00477956D01*
X0125392Y00475158D01*
Y00472439D01*
X01252925Y00471687D01*
X01252894Y00471669D01*
X01233417Y00491146D01*
X01234129Y0049217D01*
X01236062Y0049137D01*
X01238136Y00491096D01*
X01257377D01*
X01258166Y00490308D01*
X01260674Y0048886D01*
X01263472Y0048811D01*
X01266368D01*
X01269166Y0048886D01*
X01271674Y00490308D01*
X01273722Y00492356D01*
X0127517Y00494864D01*
X0127592Y00497662D01*
Y00500558D01*
X0127517Y00503356D01*
X01273722Y00505864D01*
X01271674Y00507912D01*
X01269166Y0050936D01*
X01266368Y0051011D01*
X01263472D01*
X01260674Y0050936D01*
X01258166Y00507912D01*
X01257377Y00507123D01*
X01241456D01*
X01187843Y00560736D01*
Y00588501D01*
X01193309Y00593966D01*
X01209117D01*
X01209906Y00593178D01*
X01212414Y0059173D01*
X01215212Y0059098D01*
X01218108D01*
X01220906Y0059173D01*
X01223414Y00593178D01*
X01225462Y00595226D01*
X0122691Y00597734D01*
X0122766Y00600532D01*
Y00603428D01*
X0122691Y00606226D01*
X01225462Y00608734D01*
X01223414Y00610782D01*
X01220906Y0061223D01*
X01218108Y0061298D01*
X01215212D01*
X01212414Y0061223D01*
X01209906Y00610782D01*
X01209117Y00609994D01*
X0118999D01*
X01187916Y0060972D01*
X01185983Y0060892D01*
X01184324Y00607646D01*
X01174164Y00597486D01*
X0117289Y00595827D01*
X01172089Y00593894D01*
X01171816Y0059182D01*
Y00557416D01*
X01172089Y00555342D01*
X0117289Y0055341D01*
X01171866Y00552696D01*
X01078226Y00646337D01*
X01076566Y0064761D01*
X01074633Y00648411D01*
X01072559Y00648684D01*
X01057218D01*
X01056587Y00649507D01*
X01053998Y00651493D01*
X01050984Y00652742D01*
Y00653999D01*
X01053998Y00655248D01*
X01056587Y00657234D01*
X01057723Y00658715D01*
X01197824D01*
X01205826Y00650713D01*
X0120641Y00648534D01*
X01207858Y00646026D01*
X01209906Y00643978D01*
X01212414Y0064253D01*
X01215212Y0064178D01*
X01218108D01*
X01220906Y0064253D01*
X01223414Y00643978D01*
X01225462Y00646026D01*
X0122691Y00648534D01*
X0122766Y00651332D01*
Y00654228D01*
X0122691Y00657026D01*
X01225462Y00659534D01*
X01223414Y00661582D01*
X01220906Y0066303D01*
X01218108Y0066378D01*
X01215425D01*
X01212654Y00666551D01*
X01213311Y00667689D01*
X01215212Y0066718D01*
X01218108D01*
X01220906Y0066793D01*
X01223414Y00669378D01*
X01225462Y00671426D01*
X0122691Y00673934D01*
X0122766Y00676732D01*
Y00679628D01*
X0122691Y00682426D01*
X01225462Y00684934D01*
X01223414Y00686982D01*
X01220906Y0068843D01*
X01218108Y0068918D01*
X01215212D01*
X01212414Y0068843D01*
X01209906Y00686982D01*
X01207858Y00684934D01*
X0120641Y00682426D01*
X0120566Y00679628D01*
Y00676732D01*
X01206285Y00674398D01*
X0120517Y00673653D01*
X0120515Y00673668D01*
X01203217Y00674469D01*
X01201143Y00674742D01*
X01056713D01*
X01056587Y00674907D01*
X01053998Y00676893D01*
X01050984Y00678142D01*
Y00679399D01*
X01053998Y00680648D01*
X01056587Y00682634D01*
X01058573Y00685222D01*
X01059821Y00688236D01*
X01060247Y0069147D01*
X01059821Y00694705D01*
X01058573Y00697719D01*
X01056587Y00700307D01*
X01053998Y00702293D01*
X01050984Y00703542D01*
Y00704799D01*
X01053998Y00706048D01*
X01056587Y00708034D01*
X01058573Y00710622D01*
X01059821Y00713636D01*
X01060247Y0071687D01*
X01059821Y00720105D01*
X01058573Y00723119D01*
X01056587Y00725707D01*
X01053998Y00727693D01*
X01050984Y00728942D01*
Y007302D01*
X01053998Y00731448D01*
X01056587Y00733434D01*
X01058573Y00736022D01*
X01059821Y00739036D01*
X01060247Y00742271D01*
X01059821Y00745505D01*
X01058573Y00748519D01*
X01056587Y00751107D01*
X01053998Y00753093D01*
X01050984Y00754342D01*
Y007556D01*
X01053998Y00756848D01*
X01056587Y00758834D01*
X01058573Y00761422D01*
X01059821Y00764436D01*
X01060247Y00767671D01*
X01059821Y00770905D01*
X01059244Y00772299D01*
X01160311Y00873366D01*
X01209117D01*
X01209906Y00872578D01*
X01212414Y0087113D01*
X01215212Y0087038D01*
X01218108D01*
X01220906Y0087113D01*
X01223414Y00872578D01*
X01225462Y00874626D01*
X0122691Y00877134D01*
X0122766Y00879932D01*
Y00882828D01*
X0122691Y00885626D01*
X01225462Y00888134D01*
X01223414Y00890182D01*
X01220906Y0089163D01*
X01218108Y0089238D01*
X01215212D01*
X01212414Y0089163D01*
X01209906Y00890182D01*
X01209117Y00889393D01*
X01156992D01*
X01154918Y0088912D01*
X01152985Y0088832D01*
X01151325Y00887046D01*
X01060994Y00796716D01*
X01059518Y00797036D01*
X01058573Y00799319D01*
X01056587Y00801907D01*
X01053998Y00803893D01*
X01050984Y00805142D01*
Y008064D01*
X01053998Y00807648D01*
X01056587Y00809634D01*
X01058573Y00812222D01*
X01059821Y00815236D01*
X01060247Y00818471D01*
X01059821Y00821705D01*
X01058573Y00824719D01*
X01056587Y00827307D01*
X01053998Y00829293D01*
X01050984Y00830542D01*
Y00831799D01*
X01053998Y00833048D01*
X01056587Y00835034D01*
X01058573Y00837622D01*
X01059821Y00840636D01*
X01060247Y0084387D01*
X01059821Y00847105D01*
X01058573Y00850119D01*
X01056587Y00852707D01*
X01053998Y00854693D01*
X01050984Y00855942D01*
Y00857199D01*
X01053998Y00858448D01*
X01056587Y00860434D01*
X01057218Y00861257D01*
X01071201D01*
X01073275Y0086153D01*
X01075207Y00862331D01*
X01076867Y00863604D01*
X01166639Y00953376D01*
X01248901D01*
X01279766Y00922511D01*
Y00803419D01*
X01228686Y00752339D01*
X01228655Y00752357D01*
X0122766Y00753109D01*
Y00755828D01*
X0122691Y00758626D01*
X01225462Y00761134D01*
X01223414Y00763182D01*
X01220906Y0076463D01*
X01218108Y0076538D01*
X01215212D01*
X01212414Y0076463D01*
X01209906Y00763182D01*
X01207858Y00761134D01*
X0120641Y00758626D01*
X0120566Y00755828D01*
Y00752932D01*
X0120641Y00750134D01*
X01207858Y00747626D01*
X01209906Y00745578D01*
X01212414Y0074413D01*
X01215212Y0074338D01*
X01217931D01*
X01218683Y00742385D01*
X01218701Y00742354D01*
X01216327Y0073998D01*
X01215212D01*
X01212414Y0073923D01*
X01209906Y00737782D01*
X01207858Y00735734D01*
X0120641Y00733226D01*
X0120566Y00730428D01*
Y00727532D01*
X0120641Y00724734D01*
X01207858Y00722226D01*
X01209906Y00720178D01*
X01212414Y0071873D01*
X01215212Y0071798D01*
X01218108D01*
X01220906Y0071873D01*
X01223414Y00720178D01*
X01225462Y00722226D01*
X0122691Y00724734D01*
X0122766Y00727532D01*
Y00728647D01*
X01293446Y00794434D01*
X0129472Y00796093D01*
X0129552Y00798026D01*
X01295793Y008001D01*
Y0092583D01*
X0129552Y00927904D01*
X0129472Y00929837D01*
X01293446Y00931496D01*
X01257886Y00967056D01*
X01256227Y0096833D01*
X01254294Y0096913D01*
X0125222Y00969404D01*
D02*
G37*
G36*
X0072632Y0075692D02*
X0071755D01*
Y0074815D01*
X00717602D01*
X00720155Y00748834D01*
X00722445Y00750156D01*
X00724314Y00752025D01*
X00725636Y00754315D01*
X0072632Y00756868D01*
Y0075692D01*
D02*
G37*
G36*
X0071501D02*
X0070624D01*
Y00756868D01*
X00706924Y00754315D01*
X00708246Y00752025D01*
X00710115Y00750156D01*
X00712405Y00748834D01*
X00714958Y0074815D01*
X0071501D01*
Y0075692D01*
D02*
G37*
G36*
X00532581Y0075661D02*
X00529139D01*
X00525764Y00755939D01*
X00522585Y00754622D01*
X00519724Y0075271D01*
X0051729Y00750276D01*
X00515378Y00747415D01*
X00514061Y00744236D01*
X0051339Y00740861D01*
Y00737419D01*
X00514061Y00734044D01*
X00515378Y00730865D01*
X0051729Y00728003D01*
X00519724Y0072557D01*
X00522585Y00723658D01*
X00525764Y00722341D01*
X00529139Y0072167D01*
X00532581D01*
X00535956Y00722341D01*
X00539135Y00723658D01*
X00541996Y0072557D01*
X0054443Y00728003D01*
X00546342Y00730865D01*
X00547659Y00734044D01*
X0054833Y00737419D01*
Y00740861D01*
X00547659Y00744236D01*
X00546342Y00747415D01*
X0054443Y00750276D01*
X00541996Y0075271D01*
X00539135Y00754622D01*
X00535956Y00755939D01*
X00532581Y0075661D01*
D02*
G37*
G36*
Y0080741D02*
X00529139D01*
X00525764Y00806739D01*
X00522585Y00805422D01*
X00519724Y0080351D01*
X0051729Y00801077D01*
X00515378Y00798215D01*
X00514061Y00795036D01*
X0051339Y00791661D01*
Y00788219D01*
X00514061Y00784844D01*
X00515378Y00781665D01*
X0051729Y00778803D01*
X00519724Y0077637D01*
X00522585Y00774458D01*
X00525764Y00773141D01*
X00529139Y0077247D01*
X00532581D01*
X00535956Y00773141D01*
X00536217Y0077325D01*
X00596314Y00713154D01*
X00597973Y0071188D01*
X00599906Y00711079D01*
X0060198Y00710807D01*
X00700785D01*
X00702859Y00711079D01*
X00704779Y00711875D01*
X00704829Y00711854D01*
X00705892Y00711124D01*
X0070528Y00708838D01*
Y00705942D01*
X0070603Y00703144D01*
X00707478Y00700636D01*
X00709526Y00698588D01*
X00712034Y0069714D01*
X00714832Y0069639D01*
X00717728D01*
X00720526Y0069714D01*
X00723034Y00698588D01*
X00725082Y00700636D01*
X0072653Y00703144D01*
X0072728Y00705942D01*
Y00708838D01*
X0072653Y00711636D01*
X00725082Y00714144D01*
X00723034Y00716192D01*
X00720526Y0071764D01*
X00717728Y0071839D01*
X00714832D01*
X0071299Y00717897D01*
X00712333Y00719035D01*
X00715088Y0072179D01*
X00717728D01*
X00720526Y0072254D01*
X00723034Y00723988D01*
X00725082Y00726036D01*
X0072653Y00728544D01*
X0072728Y00731342D01*
Y00734238D01*
X0072653Y00737036D01*
X00725082Y00739544D01*
X00723034Y00741592D01*
X00720526Y0074304D01*
X00717728Y0074379D01*
X00714832D01*
X00712034Y0074304D01*
X00709526Y00741592D01*
X00707478Y00739544D01*
X0070603Y00737036D01*
X0070543Y00734798D01*
X00697466Y00726833D01*
X00605299D01*
X0054755Y00784583D01*
X00547659Y00784844D01*
X0054833Y00788219D01*
Y00791661D01*
X00547659Y00795036D01*
X00546342Y00798215D01*
X0054443Y00801077D01*
X00541996Y0080351D01*
X00539135Y00805422D01*
X00535956Y00806739D01*
X00532581Y0080741D01*
D02*
G37*
G36*
X01218108Y0071458D02*
X01215212D01*
X01212414Y0071383D01*
X01209906Y00712382D01*
X01207858Y00710334D01*
X0120641Y00707826D01*
X0120566Y00705028D01*
Y00702132D01*
X0120641Y00699334D01*
X01207858Y00696826D01*
X01209906Y00694778D01*
X01212414Y0069333D01*
X01215212Y0069258D01*
X01218108D01*
X01220906Y0069333D01*
X01223414Y00694778D01*
X01225462Y00696826D01*
X0122691Y00699334D01*
X0122766Y00702132D01*
Y00705028D01*
X0122691Y00707826D01*
X01225462Y00710334D01*
X01223414Y00712382D01*
X01220906Y0071383D01*
X01218108Y0071458D01*
D02*
G37*
G36*
X00717728Y0069299D02*
X00714832D01*
X00712034Y0069224D01*
X00709526Y00690792D01*
X00707478Y00688744D01*
X0070603Y00686236D01*
X0070528Y00683438D01*
Y00680542D01*
X0070603Y00677744D01*
X00707478Y00675236D01*
X00709526Y00673188D01*
X00712034Y0067174D01*
X00714832Y0067099D01*
X00717728D01*
X00720526Y0067174D01*
X00723034Y00673188D01*
X00725082Y00675236D01*
X0072653Y00677744D01*
X0072728Y00680542D01*
Y00683438D01*
X0072653Y00686236D01*
X00725082Y00688744D01*
X00723034Y00690792D01*
X00720526Y0069224D01*
X00717728Y0069299D01*
D02*
G37*
G36*
X01217982Y0063742D02*
X0121793D01*
Y0062865D01*
X012267D01*
Y00628702D01*
X01226016Y00631255D01*
X01224694Y00633545D01*
X01222825Y00635414D01*
X01220535Y00636736D01*
X01217982Y0063742D01*
D02*
G37*
G36*
X0121539D02*
X01215338D01*
X01212785Y00636736D01*
X01210495Y00635414D01*
X01208626Y00633545D01*
X01207304Y00631255D01*
X0120662Y00628702D01*
Y0062865D01*
X0121539D01*
Y0063742D01*
D02*
G37*
G36*
X012267Y0062611D02*
X0121793D01*
Y0061734D01*
X01217982D01*
X01220535Y00618024D01*
X01222825Y00619346D01*
X01224694Y00621215D01*
X01226016Y00623505D01*
X012267Y00626058D01*
Y0062611D01*
D02*
G37*
G36*
X0121539D02*
X0120662D01*
Y00626058D01*
X01207304Y00623505D01*
X01208626Y00621215D01*
X01210495Y00619346D01*
X01212785Y00618024D01*
X01215338Y0061734D01*
X0121539D01*
Y0062611D01*
D02*
G37*
G36*
X00531216Y0062357D02*
X0053086D01*
Y0060833D01*
X005461D01*
Y00608686D01*
X00545466Y00611876D01*
X00544221Y0061488D01*
X00542414Y00617584D01*
X00540115Y00619884D01*
X0053741Y00621691D01*
X00534406Y00622935D01*
X00531216Y0062357D01*
D02*
G37*
G36*
X0052832D02*
X00527964D01*
X00524774Y00622935D01*
X0052177Y00621691D01*
X00519066Y00619884D01*
X00516766Y00617584D01*
X00514959Y0061488D01*
X00513714Y00611876D01*
X0051308Y00608686D01*
Y0060833D01*
X0052832D01*
Y0062357D01*
D02*
G37*
G36*
X00717728Y0061679D02*
X00714832D01*
X00712034Y0061604D01*
X00709526Y00614592D01*
X00707478Y00612544D01*
X0070603Y00610036D01*
X0070528Y00607238D01*
Y00604342D01*
X0070603Y00601544D01*
X00707478Y00599036D01*
X00709526Y00596988D01*
X00712034Y0059554D01*
X00714832Y0059479D01*
X00717728D01*
X00720526Y0059554D01*
X00723034Y00596988D01*
X00725082Y00599036D01*
X0072653Y00601544D01*
X0072728Y00604342D01*
Y00607238D01*
X0072653Y00610036D01*
X00725082Y00612544D01*
X00723034Y00614592D01*
X00720526Y0061604D01*
X00717728Y0061679D01*
D02*
G37*
G36*
X005461Y0060579D02*
X0053086D01*
Y0059055D01*
X00531216D01*
X00534406Y00591185D01*
X0053741Y00592429D01*
X00540115Y00594236D01*
X00542414Y00596535D01*
X00544221Y0059924D01*
X00545466Y00602244D01*
X005461Y00605434D01*
Y0060579D01*
D02*
G37*
G36*
X0052832D02*
X0051308D01*
Y00605434D01*
X00513714Y00602244D01*
X00514959Y0059924D01*
X00516766Y00596535D01*
X00519066Y00594236D01*
X0052177Y00592429D01*
X00524774Y00591185D01*
X00527964Y0059055D01*
X0052832D01*
Y0060579D01*
D02*
G37*
G36*
X0079375Y00575409D02*
Y0056515D01*
X00805111D01*
X00804886Y00566864D01*
X00803734Y00569644D01*
X00801902Y00572032D01*
X00799514Y00573864D01*
X00796734Y00575016D01*
X0079375Y00575409D01*
D02*
G37*
G36*
X0079121D02*
X00788226Y00575016D01*
X00785446Y00573864D01*
X00783058Y00572032D01*
X00781226Y00569644D01*
X00780074Y00566864D01*
X00779849Y0056515D01*
X0079121D01*
Y00575409D01*
D02*
G37*
G36*
X00805111Y0056261D02*
X0079375D01*
Y00552351D01*
X00796734Y00552744D01*
X00799514Y00553896D01*
X00801902Y00555728D01*
X00803734Y00558116D01*
X00804886Y00560896D01*
X00805111Y0056261D01*
D02*
G37*
G36*
X0079121D02*
X00779849D01*
X00780074Y00560896D01*
X00781226Y00558116D01*
X00783058Y00555728D01*
X00785446Y00553896D01*
X00788226Y00552744D01*
X0079121Y00552351D01*
Y0056261D01*
D02*
G37*
G36*
X0071547Y00550079D02*
X0070947D01*
X00706468Y00549684D01*
X0070367Y00548525D01*
X00701268Y00546682D01*
X00699425Y0054428D01*
X00698266Y00541482D01*
X00697871Y0053848D01*
X00698266Y00535478D01*
X00699425Y0053268D01*
X00701268Y00530278D01*
X0070367Y00528435D01*
X00706468Y00527276D01*
X0070947Y00526881D01*
X0071547D01*
X00718472Y00527276D01*
X0072127Y00528435D01*
X00723672Y00530278D01*
X00725515Y0053268D01*
X00726674Y00535478D01*
X00727069Y0053848D01*
X00726674Y00541482D01*
X00725515Y0054428D01*
X00723672Y00546682D01*
X0072127Y00548525D01*
X00718472Y00549684D01*
X0071547Y00550079D01*
D02*
G37*
G36*
X0127592Y0053551D02*
X0125392D01*
Y0051351D01*
X0127592D01*
Y0053551D01*
D02*
G37*
G36*
X00928731Y0102458D02*
X00925469D01*
X00922318Y01023736D01*
X00919492Y01022104D01*
X00917186Y01019798D01*
X00915554Y01016972D01*
X0091471Y01013821D01*
Y01011133D01*
X00889684Y00986106D01*
X0088841Y00984447D01*
X00887609Y00982514D01*
X00887337Y0098044D01*
Y00543391D01*
X0080726Y00463314D01*
X00806057Y00463722D01*
X00805821Y00465514D01*
X00804573Y00468529D01*
X00802587Y00471117D01*
X00799998Y00473103D01*
X00796984Y00474351D01*
Y00475609D01*
X00799998Y00476857D01*
X00802587Y00478843D01*
X00804573Y00481432D01*
X00805821Y00484446D01*
X00806247Y0048768D01*
X00805821Y00490914D01*
X00804573Y00493928D01*
X00802587Y00496517D01*
X00799998Y00498503D01*
X00796984Y00499751D01*
Y00501009D01*
X00799998Y00502257D01*
X00802587Y00504243D01*
X00804573Y00506832D01*
X00805821Y00509846D01*
X00806247Y0051308D01*
X00805821Y00516314D01*
X00804573Y00519328D01*
X00802587Y00521917D01*
X00799998Y00523903D01*
X00796984Y00525151D01*
Y00526409D01*
X00799998Y00527657D01*
X00802587Y00529643D01*
X00804573Y00532231D01*
X00805821Y00535246D01*
X00806247Y0053848D01*
X00805821Y00541714D01*
X00804573Y00544729D01*
X00802587Y00547317D01*
X00799998Y00549303D01*
X00796984Y00550551D01*
X0079375Y00550977D01*
X0079121D01*
X00787976Y00550551D01*
X00784961Y00549303D01*
X00782373Y00547317D01*
X00780387Y00544729D01*
X00779139Y00541714D01*
X00778713Y0053848D01*
X00778848Y00537451D01*
X00767709Y00526311D01*
X00766435Y00524652D01*
X00765939Y00523455D01*
X00764848Y00522364D01*
X00641319D01*
X00625438Y00538245D01*
X00625469Y0053848D01*
X00625074Y00541482D01*
X00623915Y0054428D01*
X00622072Y00546682D01*
X0061967Y00548525D01*
X00616872Y00549684D01*
X0061387Y00550079D01*
X0060787D01*
X00607635Y00550048D01*
X00595756Y00561926D01*
X00594097Y005632D01*
X00592164Y00564001D01*
X0059009Y00564273D01*
X0054518D01*
X00545072Y00564535D01*
X0054316Y00567397D01*
X00540727Y0056983D01*
X00537865Y00571742D01*
X00534686Y00573059D01*
X00531311Y0057373D01*
X00527869D01*
X00524494Y00573059D01*
X00521315Y00571742D01*
X00518453Y0056983D01*
X0051602Y00567397D01*
X00514108Y00564535D01*
X00512791Y00561356D01*
X0051212Y00557981D01*
Y00554539D01*
X00512791Y00551164D01*
X00514108Y00547985D01*
X0051602Y00545123D01*
X00518453Y0054269D01*
X00521315Y00540778D01*
X00524494Y00539461D01*
X00527869Y0053879D01*
X00531311D01*
X00534686Y00539461D01*
X00537865Y00540778D01*
X00540727Y0054269D01*
X0054316Y00545123D01*
X00545072Y00547985D01*
X0054518Y00548246D01*
X00586771D01*
X00596302Y00538715D01*
X00596271Y0053848D01*
X00596666Y00535478D01*
X00597825Y0053268D01*
X00599668Y00530278D01*
X0060207Y00528435D01*
X00604868Y00527276D01*
X0060787Y00526881D01*
X0061387D01*
X00614105Y00526912D01*
X00632334Y00508684D01*
X00633993Y0050741D01*
X00635926Y00506609D01*
X00638Y00506337D01*
X00768167D01*
X00770241Y00506609D01*
X00772174Y0050741D01*
X00773834Y00508684D01*
X00777525Y00512375D01*
X00778866Y0051192D01*
X00779139Y00509846D01*
X00780387Y00506832D01*
X00782373Y00504243D01*
X00784961Y00502257D01*
X00787975Y00501009D01*
Y00499751D01*
X00784961Y00498503D01*
X00782373Y00496517D01*
X00780387Y00493928D01*
X00779139Y00490914D01*
X00778713Y0048768D01*
X00779139Y00484446D01*
X00780387Y00481432D01*
X00782373Y00478843D01*
X00784961Y00476857D01*
X00787975Y00475609D01*
Y00474351D01*
X00784961Y00473103D01*
X00782373Y00471117D01*
X00780387Y00468529D01*
X00779139Y00465514D01*
X00778713Y0046228D01*
X00779139Y00459046D01*
X00780387Y00456031D01*
X00782373Y00453443D01*
X00784961Y00451457D01*
X00787975Y00450209D01*
Y00448951D01*
X00784961Y00447703D01*
X00782373Y00445717D01*
X00780387Y00443129D01*
X00779139Y00440114D01*
X00778713Y0043688D01*
X00779139Y00433646D01*
X00780387Y00430631D01*
X00782373Y00428043D01*
X00784961Y00426057D01*
X00787976Y00424809D01*
X0079121Y00424383D01*
X0079375D01*
X00796984Y00424809D01*
X00799998Y00426057D01*
X00802587Y00428043D01*
X00804573Y00430631D01*
X00805821Y00433646D01*
X00806247Y0043688D01*
X00805926Y00439315D01*
X00901016Y00534405D01*
X0090229Y00536065D01*
X00903091Y00537998D01*
X00903363Y00540072D01*
Y00977121D01*
X00926043Y009998D01*
X00928731D01*
X00931882Y01000644D01*
X00934708Y01002275D01*
X00937014Y01004582D01*
X00938646Y01007408D01*
X0093949Y01010559D01*
Y01013821D01*
X00938646Y01016972D01*
X00937014Y01019798D01*
X00934708Y01022104D01*
X00931882Y01023736D01*
X00928731Y0102458D01*
D02*
G37*
G36*
X01164951Y0046451D02*
X01161689D01*
X01158538Y00463666D01*
X01155712Y00462034D01*
X01153406Y00459728D01*
X01151774Y00456902D01*
X0115093Y00453751D01*
Y00450489D01*
X01151774Y00447338D01*
X01153406Y00444512D01*
X01155712Y00442206D01*
X01158538Y00440574D01*
X01161689Y0043973D01*
X01164951D01*
X01168102Y00440574D01*
X01170928Y00442206D01*
X01173234Y00444512D01*
X01174866Y00447338D01*
X0117571Y00450489D01*
Y00453751D01*
X01174866Y00456902D01*
X01173234Y00459728D01*
X01170928Y00462034D01*
X01168102Y00463666D01*
X01164951Y0046451D01*
D02*
G37*
G36*
X01201781Y0046324D02*
X01198519D01*
X01195368Y00462396D01*
X01192542Y00460765D01*
X01190236Y00458458D01*
X01188604Y00455632D01*
X0118776Y00452481D01*
Y00449219D01*
X01188604Y00446068D01*
X01190236Y00443242D01*
X01192542Y00440936D01*
X01195368Y00439304D01*
X01198519Y0043846D01*
X01201781D01*
X01204932Y00439304D01*
X01207758Y00440936D01*
X01210064Y00443242D01*
X01211696Y00446068D01*
X0121254Y00449219D01*
Y00452481D01*
X01211696Y00455632D01*
X01210064Y00458458D01*
X01207758Y00460765D01*
X01204932Y00462396D01*
X01201781Y0046324D01*
D02*
G37*
G36*
X0104775Y00448698D02*
X0104521D01*
X01041976Y00448272D01*
X01038961Y00447023D01*
X01036373Y00445037D01*
X01034387Y00442449D01*
X01033139Y00439435D01*
X01032713Y00436201D01*
X01033139Y00432966D01*
X01034387Y00429952D01*
X01036373Y00427364D01*
X01038961Y00425378D01*
X01041976Y00424129D01*
X0104521Y00423704D01*
X0104775D01*
X01050984Y00424129D01*
X01053998Y00425378D01*
X01056587Y00427364D01*
X01058573Y00429952D01*
X01059821Y00432966D01*
X01060247Y00436201D01*
X01059821Y00439435D01*
X01058573Y00442449D01*
X01056587Y00445037D01*
X01053998Y00447023D01*
X01050984Y00448272D01*
X0104775Y00448698D01*
D02*
G37*
G36*
X00532581Y0045054D02*
X00529139D01*
X00525764Y00449869D01*
X00522585Y00448552D01*
X00519724Y0044664D01*
X0051729Y00444207D01*
X00515378Y00441345D01*
X00514061Y00438166D01*
X0051339Y00434791D01*
Y00431349D01*
X00514061Y00427974D01*
X00515378Y00424795D01*
X0051729Y00421934D01*
X00519724Y004195D01*
X00522585Y00417588D01*
X00525764Y00416271D01*
X00529139Y004156D01*
X00532581D01*
X00535956Y00416271D01*
X00539135Y00417588D01*
X00541996Y004195D01*
X0054443Y00421934D01*
X00546092Y00424422D01*
X0063531D01*
Y0041941D01*
X0066771D01*
Y00423787D01*
X00722011D01*
X00723912Y00421885D01*
X00726738Y00420254D01*
X00729889Y0041941D01*
X00733151D01*
X00736302Y00420254D01*
X00739128Y00421885D01*
X00741434Y00424192D01*
X00743066Y00427018D01*
X0074391Y00430169D01*
Y00433431D01*
X00743066Y00436582D01*
X00741434Y00439408D01*
X00739128Y00441715D01*
X00736302Y00443346D01*
X00733151Y0044419D01*
X00729889D01*
X00726738Y00443346D01*
X00723912Y00441715D01*
X00722011Y00439813D01*
X0066771D01*
Y0044419D01*
X0063531D01*
Y00440448D01*
X00546713D01*
X00546342Y00441345D01*
X0054443Y00444207D01*
X00541996Y0044664D01*
X00539135Y00448552D01*
X00535956Y00449869D01*
X00532581Y0045054D01*
D02*
G37*
G36*
X01164825Y0041275D02*
X0116459D01*
Y0040259D01*
X0117475D01*
Y00402825D01*
X01173971Y00405732D01*
X01172466Y00408338D01*
X01170338Y00410466D01*
X01167732Y00411971D01*
X01164825Y0041275D01*
D02*
G37*
G36*
X0116205D02*
X01161815D01*
X01158908Y00411971D01*
X01156302Y00410466D01*
X01154174Y00408338D01*
X01152669Y00405732D01*
X0115189Y00402825D01*
Y0040259D01*
X0116205D01*
Y0041275D01*
D02*
G37*
G36*
X01201655Y0041148D02*
X0120142D01*
Y0040132D01*
X0121158D01*
Y00401555D01*
X01210801Y00404462D01*
X01209296Y00407068D01*
X01207168Y00409196D01*
X01204562Y00410701D01*
X01201655Y0041148D01*
D02*
G37*
G36*
X0119888D02*
X01198645D01*
X01195738Y00410701D01*
X01193132Y00409196D01*
X01191004Y00407068D01*
X01189499Y00404462D01*
X0118872Y00401555D01*
Y0040132D01*
X0119888D01*
Y0041148D01*
D02*
G37*
G36*
X01266242Y0040755D02*
X0126619D01*
Y0039878D01*
X0127496D01*
Y00398832D01*
X01274276Y00401385D01*
X01272954Y00403675D01*
X01271085Y00405544D01*
X01268795Y00406866D01*
X01266242Y0040755D01*
D02*
G37*
G36*
X0126365D02*
X01263598D01*
X01261045Y00406866D01*
X01258755Y00405544D01*
X01256886Y00403675D01*
X01255564Y00401385D01*
X0125488Y00398832D01*
Y0039878D01*
X0126365D01*
Y0040755D01*
D02*
G37*
G36*
X0065532Y00405229D02*
X0065278D01*
Y0039497D01*
X00666681D01*
X00666456Y00396684D01*
X00665304Y00399464D01*
X00663472Y00401852D01*
X00661084Y00403684D01*
X00658304Y00404836D01*
X0065532Y00405229D01*
D02*
G37*
G36*
X0065024D02*
X006477D01*
X00644716Y00404836D01*
X00641936Y00403684D01*
X00639548Y00401852D01*
X00637716Y00399464D01*
X00636564Y00396684D01*
X00636339Y0039497D01*
X0065024D01*
Y00405229D01*
D02*
G37*
G36*
X0117475Y0040005D02*
X0116459D01*
Y0038989D01*
X01164825D01*
X01167732Y00390669D01*
X01170338Y00392174D01*
X01172466Y00394302D01*
X01173971Y00396908D01*
X0117475Y00399815D01*
Y0040005D01*
D02*
G37*
G36*
X0116205D02*
X0115189D01*
Y00399815D01*
X01152669Y00396908D01*
X01154174Y00394302D01*
X01156302Y00392174D01*
X01158908Y00390669D01*
X01161815Y0038989D01*
X0116205D01*
Y0040005D01*
D02*
G37*
G36*
X0121158Y0039878D02*
X0120142D01*
Y0038862D01*
X01201655D01*
X01204562Y00389399D01*
X01207168Y00390904D01*
X01209296Y00393032D01*
X01210801Y00395638D01*
X0121158Y00398545D01*
Y0039878D01*
D02*
G37*
G36*
X0119888D02*
X0118872D01*
Y00398545D01*
X01189499Y00395638D01*
X01191004Y00393032D01*
X01193132Y00390904D01*
X01195738Y00389399D01*
X01198645Y0038862D01*
X0119888D01*
Y0039878D01*
D02*
G37*
G36*
X0127496Y0039624D02*
X0126619D01*
Y0038747D01*
X01266242D01*
X01268795Y00388154D01*
X01271085Y00389476D01*
X01272954Y00391345D01*
X01274276Y00393635D01*
X0127496Y00396188D01*
Y0039624D01*
D02*
G37*
G36*
X0126365D02*
X0125488D01*
Y00396188D01*
X01255564Y00393635D01*
X01256886Y00391345D01*
X01258755Y00389476D01*
X01261045Y00388154D01*
X01263598Y0038747D01*
X0126365D01*
Y0039624D01*
D02*
G37*
G36*
X00532486Y0039878D02*
X0053213D01*
Y0038354D01*
X0054737D01*
Y00383896D01*
X00546735Y00387086D01*
X00545491Y0039009D01*
X00543684Y00392794D01*
X00541385Y00395094D01*
X0053868Y00396901D01*
X00535676Y00398145D01*
X00532486Y0039878D01*
D02*
G37*
G36*
X0052959D02*
X00529234D01*
X00526044Y00398145D01*
X0052304Y00396901D01*
X00520336Y00395094D01*
X00518036Y00392794D01*
X00516229Y0039009D01*
X00514985Y00387086D01*
X0051435Y00383896D01*
Y0038354D01*
X0052959D01*
Y0039878D01*
D02*
G37*
G36*
X00733025Y0039243D02*
X0073279D01*
Y0038227D01*
X0074295D01*
Y00382505D01*
X00742171Y00385412D01*
X00740666Y00388018D01*
X00738538Y00390146D01*
X00735932Y00391651D01*
X00733025Y0039243D01*
D02*
G37*
G36*
X0073025D02*
X00730015D01*
X00727108Y00391651D01*
X00724502Y00390146D01*
X00722374Y00388018D01*
X00720869Y00385412D01*
X0072009Y00382505D01*
Y0038227D01*
X0073025D01*
Y0039243D01*
D02*
G37*
G36*
X00666681D02*
X0065278D01*
Y00382171D01*
X0065532D01*
X00658304Y00382564D01*
X00661084Y00383716D01*
X00663472Y00385548D01*
X00665304Y00387936D01*
X00666456Y00390716D01*
X00666681Y0039243D01*
D02*
G37*
G36*
X0065024D02*
X00636339D01*
X00636564Y00390716D01*
X00637716Y00387936D01*
X00639548Y00385548D01*
X00641936Y00383716D01*
X00644716Y00382564D01*
X006477Y00382171D01*
X0065024D01*
Y0039243D01*
D02*
G37*
G36*
X0074295Y0037973D02*
X0073279D01*
Y0036957D01*
X00733025D01*
X00735932Y00370349D01*
X00738538Y00371854D01*
X00740666Y00373982D01*
X00742171Y00376588D01*
X0074295Y00379495D01*
Y0037973D01*
D02*
G37*
G36*
X0073025D02*
X0072009D01*
Y00379495D01*
X00720869Y00376588D01*
X00722374Y00373982D01*
X00724502Y00371854D01*
X00727108Y00370349D01*
X00730015Y0036957D01*
X0073025D01*
Y0037973D01*
D02*
G37*
G36*
X0054737Y00381D02*
X0053213D01*
Y0036576D01*
X00532486D01*
X00535676Y00366395D01*
X0053868Y00367639D01*
X00541385Y00369446D01*
X00543684Y00371745D01*
X00545491Y0037445D01*
X00546735Y00377454D01*
X0054737Y00380644D01*
Y00381D01*
D02*
G37*
G36*
X0052959D02*
X0051435D01*
Y00380644D01*
X00514985Y00377454D01*
X00516229Y0037445D01*
X00518036Y00371745D01*
X00520336Y00369446D01*
X0052304Y00367639D01*
X00526044Y00366395D01*
X00529234Y0036576D01*
X0052959D01*
Y00381D01*
D02*
G37*
G36*
X00501031Y0033573D02*
X00497189D01*
X00493422Y00334981D01*
X00489873Y00333511D01*
X00486679Y00331377D01*
X00483963Y00328661D01*
X00481829Y00325467D01*
X00480359Y00321918D01*
X0047961Y00318151D01*
Y00314309D01*
X00480359Y00310542D01*
X00481829Y00306993D01*
X00483963Y00303799D01*
X00486679Y00301083D01*
X00489873Y00298949D01*
X00493422Y00297479D01*
X00497189Y0029673D01*
X00501031D01*
X00504798Y00297479D01*
X00508347Y00298949D01*
X0051154Y00301083D01*
X00514257Y00303799D01*
X00516391Y00306993D01*
X00517861Y00310542D01*
X0051861Y00314309D01*
Y00318151D01*
X00517861Y00321918D01*
X00516391Y00325467D01*
X00514257Y00328661D01*
X0051154Y00331377D01*
X00508347Y00333511D01*
X00504798Y00334981D01*
X00501031Y0033573D01*
D02*
G37*
%LPD*%
D25*
X00519225Y01051513D02*
Y01164257D01*
X00525908Y0117094D02*
X0058801D01*
X0050419Y0103251D02*
X005207D01*
X0053467D01*
X005207D02*
Y01050038D01*
X00519225Y01164257D02*
X00525908Y0117094D01*
X00519225Y01051513D02*
X005207Y01050038D01*
X005588Y0103378D02*
X00844422D01*
X0078867Y00742338D02*
X0078994D01*
X0081759Y0107442D02*
X00827975Y01084805D01*
X00844422Y0103378D02*
X0084963Y01028572D01*
X0053467Y0093091D02*
X0060325Y0099949D01*
X007239Y0107442D02*
X0081759D01*
X0081661Y00769008D02*
Y009779D01*
X0060325Y0099949D02*
X0079502D01*
X0078867Y00716938D02*
X0078994D01*
X0079502Y0099949D02*
X0081661Y009779D01*
X00827975Y01084805D02*
Y01107215D01*
X00826015Y01109175D02*
X00827975Y01107215D01*
X0084963Y00776628D02*
Y01028572D01*
X0089535Y00540072D02*
Y0098044D01*
X00792816Y00437538D02*
X0089535Y00540072D01*
X0049784Y0057531D02*
X0052959Y0060706D01*
X0049784Y0041529D02*
X0053086Y0038227D01*
X0049784Y0041529D02*
Y0057531D01*
X0089535Y0098044D02*
X009271Y0101219D01*
X0103124Y0090678D02*
Y0098806D01*
Y0090678D02*
X01043349Y0089467D01*
X0104648D01*
X0100203Y0098806D02*
X0103124D01*
X009779Y0101219D02*
X0100203Y0098806D01*
X009779Y0101219D02*
Y0104394D01*
X0096139Y01061199D02*
X009779Y01044689D01*
X0096139Y01061199D02*
Y0108331D01*
X009779Y0104394D02*
Y01044689D01*
X01143Y00381D02*
X0116332Y0040132D01*
X00770481Y00381D02*
X01143D01*
X01263267Y0039751D02*
X0126492D01*
X0120015Y0040005D02*
X01260727D01*
X01263267Y0039751D01*
X01199515Y00400685D02*
X0120015Y0040005D01*
X0116332Y0040132D02*
X01163955Y00400685D01*
X01199515D01*
Y00451485D02*
X0120015Y0045085D01*
X0116332Y0045212D02*
X01163955Y00451485D01*
X0104648Y00615271D02*
X01072559D01*
X0126492Y0042291D01*
X0104648Y0064067D02*
X01072559D01*
X0126492Y0044831D01*
X0117983Y00557416D02*
Y0059182D01*
X01238136Y0049911D02*
X0126492D01*
X0117983Y00557416D02*
X01238136Y0049911D01*
X00663371Y00892379D02*
Y00908889D01*
Y00892379D02*
X006858Y0086995D01*
X006604Y00849758D02*
Y0086995D01*
Y00849758D02*
X00665608Y0084455D01*
X00760602D01*
X0076581Y00839342D01*
Y00713128D02*
Y00839342D01*
X0074422Y00709318D02*
Y00819022D01*
X00739012Y0082423D02*
X0074422Y00819022D01*
X00635Y0084836D02*
X0065913Y0082423D01*
X00739012D01*
X00635Y0084836D02*
Y0086995D01*
X0070739Y0105791D02*
X007239Y0107442D01*
X00734567Y01085087D01*
X00826015Y01109175D02*
Y01180345D01*
X0056261Y01063118D02*
X00567818Y0105791D01*
X0056261Y01063118D02*
Y0109474D01*
X00567818Y0105791D02*
X0070739D01*
X007112Y01118742D02*
X00716408Y0112395D01*
X00698091Y0107569D02*
X007112Y01088799D01*
X00716408Y0112395D02*
X0073279D01*
X007112Y01088799D02*
Y01118742D01*
X0108204Y0098806D02*
Y01150492D01*
X0096359Y011557D02*
X01076832D01*
X0108204Y01150492D01*
X0093599Y011833D02*
X0096359Y011557D01*
X01071201Y0086927D02*
X0116332Y0096139D01*
X0125222D01*
X0104648Y0086927D02*
X01071201D01*
X0125222Y0096139D02*
X0128778Y0092583D01*
X0118999Y0060198D02*
X0121666D01*
X0117983Y0059182D02*
X0118999Y0060198D01*
X01266573Y0039751D02*
X01276797Y00407734D01*
X01277684D02*
X0128397Y0041402D01*
X0126492Y0039751D02*
X01266573D01*
X01276797Y00407734D02*
X01277684D01*
X0128397Y0041402D02*
Y005969D01*
X0125349Y0062738D02*
X0128397Y005969D01*
X0121666Y0062738D02*
X0125349D01*
X00770481Y00381D02*
X0094361Y00554129D01*
X00569805Y0085852D02*
Y00944455D01*
X0059563Y0097028D02*
X0063373D01*
X00569805Y00944455D02*
X0059563Y0097028D01*
X00773375Y00519558D02*
Y00520645D01*
X00768167Y0051435D02*
X00773375Y00519558D01*
X00638Y0051435D02*
X00768167D01*
X0079121Y0053848D02*
X0079248D01*
X00773375Y00520645D02*
X0079121Y0053848D01*
X0061387D02*
X00638Y0051435D01*
X0061087Y0053848D02*
X0061387D01*
X0050292Y0094488D02*
X00502936Y00944896D01*
X00733084Y0056388D02*
X0079248D01*
X0050292Y0099568D02*
X00502936Y00995696D01*
X0052959Y0055626D02*
X0059009D01*
X0060787Y0053848D01*
X0061087D01*
X0091914Y0120015D02*
X0093599Y011833D01*
X0084582Y0120015D02*
X0091914D01*
X0094361Y00554129D02*
Y00797538D01*
X00670426Y00381D02*
X0073152D01*
X00770481D01*
X0098679Y0108331D02*
X00989845Y01086365D01*
X00826015Y01180345D02*
X0084582Y0120015D01*
X00569805Y0085852D02*
X00670135Y0075819D01*
X0071628D01*
X00700785Y0071882D02*
X00714755Y0073279D01*
X0060198Y0071882D02*
X00700785D01*
X00714755Y0073279D02*
X0071628D01*
X007747Y0065659D02*
X0079121Y0064008D01*
X0079248D01*
X0071628Y0065659D02*
X007747D01*
X0079121Y0061468D02*
X0079248D01*
X0071628Y0063119D02*
X007747D01*
X0079121Y0061468D01*
X00716574Y0058039D02*
X00733084Y0056388D01*
X0059817Y0058039D02*
X00716574D01*
X005715Y0060706D02*
X0059817Y0058039D01*
X0052959Y0060706D02*
X005715D01*
X00509905Y0079862D02*
X00569805Y0085852D01*
X0053086Y0078994D02*
X0060198Y0071882D01*
X00788341Y00615009D02*
X0078867Y00615338D01*
X00788341Y00640409D02*
X0078867Y00640738D01*
X0063373Y0097028D02*
X0066167Y0094234D01*
Y0091059D02*
X00663371Y00908889D01*
X0053467Y0105791D02*
X005588Y0103378D01*
X0078994Y00716938D02*
X0084963Y00776628D01*
X0078994Y00742338D02*
X0081661Y00769008D01*
X0050292Y0099568D02*
Y0103124D01*
X0050419Y0103251D01*
X0050292Y0098044D02*
Y0099568D01*
Y0094488D02*
Y0098044D01*
X0050419Y0098171D01*
X0053467D01*
X0050292Y00894925D02*
Y0094488D01*
X0076581Y00713128D02*
X007874Y00691538D01*
X0074422Y00709318D02*
X007874Y00666138D01*
Y00691538D02*
X0078867D01*
X007874Y00666138D02*
X0078867D01*
X0052959Y0055626D02*
X00530225Y00556895D01*
X0104267Y00615928D02*
X0104394D01*
X0104267Y00666728D02*
X01201143D01*
X01215092Y0065278D01*
X0121666D01*
X0104394Y00768328D02*
X01156992Y0088138D01*
X0104267Y00768328D02*
X0104394D01*
X0094361Y00797538D02*
X010414Y00895328D01*
X006858Y0114681D02*
X0073533D01*
X0064262D02*
X006858D01*
X00734567Y01085087D02*
Y01095247D01*
X0073533Y0109601D01*
X0073279Y0112395D02*
X0076073Y0109601D01*
X00640489Y0107569D02*
X00698091D01*
X0073533Y0114681D02*
X0078613Y0109601D01*
X0066167Y0091059D02*
Y0094234D01*
X01156992Y0088138D02*
X0121666D01*
Y0072898D02*
X0128778Y008001D01*
Y0092583D01*
X00612612Y01103568D02*
X00640489Y0107569D01*
X00612612Y01103568D02*
Y01120938D01*
X0058801Y0114554D02*
X00612612Y01120938D01*
X00586841Y01146709D02*
X0058801Y0114554D01*
X0050292Y00894925D02*
X00539325Y0085852D01*
X00569805D01*
X0056261Y0109474D02*
X0058801Y0112014D01*
Y0117094D02*
X0061214Y0114681D01*
X0064262D01*
X00509905Y0071526D02*
Y0079862D01*
Y0071526D02*
X0052959Y00695575D01*
Y0060706D02*
Y00695575D01*
X0065151Y003937D02*
X00657726D01*
X00670426Y00381D01*
X00645294Y003937D02*
X0065151D01*
X0053086Y0038227D02*
X00633864D01*
X00645294Y003937D01*
X0065151Y004318D02*
X0073152D01*
X00531495Y00432435D02*
X00650875D01*
X0053086Y0043307D02*
X00531495Y00432435D01*
X00650875D02*
X0065151Y004318D01*
D26*
X0071247Y0053848D02*
D03*
X0061087D02*
D03*
D27*
X0065151Y004318D02*
D03*
D28*
Y003937D02*
D03*
D29*
X0079248Y0089408D02*
D03*
Y0086868D02*
D03*
Y0084328D02*
D03*
Y0081788D02*
D03*
Y0079248D02*
D03*
Y0076708D02*
D03*
Y0074168D02*
D03*
Y0071628D02*
D03*
Y0069088D02*
D03*
Y0066548D02*
D03*
Y0064008D02*
D03*
Y0061468D02*
D03*
Y0058928D02*
D03*
Y0056388D02*
D03*
Y0053848D02*
D03*
Y0051308D02*
D03*
Y0048768D02*
D03*
Y0046228D02*
D03*
Y0043688D02*
D03*
X0104648Y00436201D02*
D03*
Y00462871D02*
D03*
Y00488271D02*
D03*
Y00513671D02*
D03*
Y00539071D02*
D03*
Y0056447D02*
D03*
Y0058987D02*
D03*
Y00615271D02*
D03*
Y0064067D02*
D03*
Y0066607D02*
D03*
Y0069147D02*
D03*
Y0071687D02*
D03*
Y00742271D02*
D03*
Y00767671D02*
D03*
Y00793071D02*
D03*
Y00818471D02*
D03*
Y0084387D02*
D03*
Y0086927D02*
D03*
Y0089467D02*
D03*
D30*
X0103124Y0098806D02*
D03*
X0105664D02*
D03*
X0108204D02*
D03*
X0110744D02*
D03*
X0113284D02*
D03*
X0096139Y011833D02*
D03*
X0098679D02*
D03*
X0093599Y0108331D02*
D03*
X0096139D02*
D03*
X0053467Y0095631D02*
D03*
Y0098171D02*
D03*
Y0100711D02*
D03*
Y0103251D02*
D03*
Y0105791D02*
D03*
X0071628Y0060579D02*
D03*
Y0063119D02*
D03*
Y0065659D02*
D03*
Y0068199D02*
D03*
Y0070739D02*
D03*
Y0073279D02*
D03*
Y0075819D02*
D03*
X0121666Y0090678D02*
D03*
Y0088138D02*
D03*
Y0085598D02*
D03*
Y0083058D02*
D03*
Y0080518D02*
D03*
Y0077978D02*
D03*
Y0075438D02*
D03*
Y0072898D02*
D03*
Y0070358D02*
D03*
Y0067818D02*
D03*
Y0065278D02*
D03*
Y0062738D02*
D03*
Y0060198D02*
D03*
X0126492Y0049911D02*
D03*
Y0047371D02*
D03*
Y0044831D02*
D03*
Y0042291D02*
D03*
Y0039751D02*
D03*
X0058801Y0112014D02*
D03*
Y0114554D02*
D03*
Y0117094D02*
D03*
X0073533Y0109601D02*
D03*
X0076073D02*
D03*
X0078613D02*
D03*
X006096Y0086995D02*
D03*
X00635D02*
D03*
X006604D02*
D03*
D31*
X0115824Y0098806D02*
D03*
X0093599Y011833D02*
D03*
X0098679Y0108331D02*
D03*
X0081153Y0109601D02*
D03*
X006858Y0086995D02*
D03*
D32*
X0116332Y0045212D02*
D03*
Y0040132D02*
D03*
X0120015Y0045085D02*
D03*
Y0040005D02*
D03*
X0066167Y0091059D02*
D03*
X0061087D02*
D03*
X009779Y0101219D02*
D03*
X009271D02*
D03*
X009779Y0104394D02*
D03*
X009271D02*
D03*
X0061087Y0094234D02*
D03*
X0066167D02*
D03*
X0073152Y00381D02*
D03*
Y004318D02*
D03*
X006858Y0114681D02*
D03*
Y0109601D02*
D03*
X0064262Y0114681D02*
D03*
Y0109601D02*
D03*
D33*
X0053086Y0043307D02*
D03*
Y0038227D02*
D03*
X0052959Y0060706D02*
D03*
Y0055626D02*
D03*
X0053086Y0073914D02*
D03*
Y0078994D02*
D03*
D34*
X0053467Y0093091D02*
D03*
X0071628Y0078359D02*
D03*
X0121666Y0093218D02*
D03*
X0126492Y0052451D02*
D03*
X0058801Y0109474D02*
D03*
D35*
X0129159Y0031496D02*
D03*
X0128905Y0121285D02*
D03*
X0049784D02*
D03*
X0049911Y0031623D02*
D03*
M02*
