G04*
G04 #@! TF.GenerationSoftware,Altium Limited,Altium Designer,24.1.2 (44)*
G04*
G04 Layer_Color=255*
%FSTAX44Y44*%
%MOMM*%
G71*
G04*
G04 #@! TF.SameCoordinates,C7039DF5-E853-41F3-B9AB-9B0EBC08B061*
G04*
G04*
G04 #@! TF.FilePolarity,Positive*
G04*
G01*
G75*
%ADD26O,2.2000X1.6000*%
%ADD27R,2.5400X1.7780*%
%ADD28O,2.5400X1.7780*%
%ADD29O,2.0320X1.7780*%
%ADD30C,1.5000*%
%ADD31R,1.5000X1.5000*%
%ADD32C,1.7780*%
%ADD33C,2.7940*%
%ADD34R,1.5000X1.5000*%
%ADD35C,3.2000*%
D26*
X0071247Y0053848D02*
D03*
X0061087D02*
D03*
D27*
X0065151Y004318D02*
D03*
D28*
Y003937D02*
D03*
D29*
X0079248Y0089408D02*
D03*
Y0086868D02*
D03*
Y0084328D02*
D03*
Y0081788D02*
D03*
Y0079248D02*
D03*
Y0076708D02*
D03*
Y0074168D02*
D03*
Y0071628D02*
D03*
Y0069088D02*
D03*
Y0066548D02*
D03*
Y0064008D02*
D03*
Y0061468D02*
D03*
Y0058928D02*
D03*
Y0056388D02*
D03*
Y0053848D02*
D03*
Y0051308D02*
D03*
Y0048768D02*
D03*
Y0046228D02*
D03*
Y0043688D02*
D03*
X0104648Y00436201D02*
D03*
Y00462871D02*
D03*
Y00488271D02*
D03*
Y00513671D02*
D03*
Y00539071D02*
D03*
Y0056447D02*
D03*
Y0058987D02*
D03*
Y00615271D02*
D03*
Y0064067D02*
D03*
Y0066607D02*
D03*
Y0069147D02*
D03*
Y0071687D02*
D03*
Y00742271D02*
D03*
Y00767671D02*
D03*
Y00793071D02*
D03*
Y00818471D02*
D03*
Y0084387D02*
D03*
Y0086927D02*
D03*
Y0089467D02*
D03*
D30*
X0103124Y0098806D02*
D03*
X0105664D02*
D03*
X0108204D02*
D03*
X0110744D02*
D03*
X0113284D02*
D03*
X0096139Y011833D02*
D03*
X0098679D02*
D03*
X0093599Y0108331D02*
D03*
X0096139D02*
D03*
X0053467Y0095631D02*
D03*
Y0098171D02*
D03*
Y0100711D02*
D03*
Y0103251D02*
D03*
Y0105791D02*
D03*
X0071628Y0060579D02*
D03*
Y0063119D02*
D03*
Y0065659D02*
D03*
Y0068199D02*
D03*
Y0070739D02*
D03*
Y0073279D02*
D03*
Y0075819D02*
D03*
X0121666Y0090678D02*
D03*
Y0088138D02*
D03*
Y0085598D02*
D03*
Y0083058D02*
D03*
Y0080518D02*
D03*
Y0077978D02*
D03*
Y0075438D02*
D03*
Y0072898D02*
D03*
Y0070358D02*
D03*
Y0067818D02*
D03*
Y0065278D02*
D03*
Y0062738D02*
D03*
Y0060198D02*
D03*
X0126492Y0049911D02*
D03*
Y0047371D02*
D03*
Y0044831D02*
D03*
Y0042291D02*
D03*
Y0039751D02*
D03*
X0058801Y0112014D02*
D03*
Y0114554D02*
D03*
Y0117094D02*
D03*
X0073533Y0109601D02*
D03*
X0076073D02*
D03*
X0078613D02*
D03*
X006096Y0086995D02*
D03*
X00635D02*
D03*
X006604D02*
D03*
D31*
X0115824Y0098806D02*
D03*
X0093599Y011833D02*
D03*
X0098679Y0108331D02*
D03*
X0081153Y0109601D02*
D03*
X006858Y0086995D02*
D03*
D32*
X0116332Y0045212D02*
D03*
Y0040132D02*
D03*
X0120015Y0045085D02*
D03*
Y0040005D02*
D03*
X0066167Y0091059D02*
D03*
X0061087D02*
D03*
X009779Y0101219D02*
D03*
X009271D02*
D03*
X009779Y0104394D02*
D03*
X009271D02*
D03*
X0061087Y0094234D02*
D03*
X0066167D02*
D03*
X0073152Y00381D02*
D03*
Y004318D02*
D03*
X006858Y0114681D02*
D03*
Y0109601D02*
D03*
X0064262Y0114681D02*
D03*
Y0109601D02*
D03*
D33*
X0053086Y0043307D02*
D03*
Y0038227D02*
D03*
X0052959Y0060706D02*
D03*
Y0055626D02*
D03*
X0053086Y0073914D02*
D03*
Y0078994D02*
D03*
D34*
X0053467Y0093091D02*
D03*
X0071628Y0078359D02*
D03*
X0121666Y0093218D02*
D03*
X0126492Y0052451D02*
D03*
X0058801Y0109474D02*
D03*
D35*
X0129159Y0031496D02*
D03*
X0128905Y0121285D02*
D03*
X0049784D02*
D03*
X0049911Y0031623D02*
D03*
M02*
