G04*
G04 #@! TF.GenerationSoftware,Altium Limited,Altium Designer,24.1.2 (44)*
G04*
G04 Layer_Color=2752767*
%FSTAX44Y44*%
%MOMM*%
G71*
G04*
G04 #@! TF.SameCoordinates,46C1A562-4BA7-4692-8D37-5F050BF63494*
G04*
G04*
G04 #@! TF.FilePolarity,Positive*
G04*
G01*
G75*
%ADD39C,0.1693*%
%ADD40C,0.1270*%
D39*
X0053975Y0093091D02*
G03*
X0053975Y0093091I-0000508J0D01*
G01*
Y0095631D02*
G03*
X0053975Y0095631I-0000508J0D01*
G01*
Y0098171D02*
G03*
X0053975Y0098171I-0000508J0D01*
G01*
Y0100711D02*
G03*
X0053975Y0100711I-0000508J0D01*
G01*
Y0103251D02*
G03*
X0053975Y0103251I-0000508J0D01*
G01*
Y0105791D02*
G03*
X0053975Y0105791I-0000508J0D01*
G01*
X0071755Y0061214D02*
G03*
X0071755Y0061214I-0000508J0D01*
G01*
Y0063754D02*
G03*
X0071755Y0063754I-0000508J0D01*
G01*
Y0066294D02*
G03*
X0071755Y0066294I-0000508J0D01*
G01*
Y0068834D02*
G03*
X0071755Y0068834I-0000508J0D01*
G01*
Y0071374D02*
G03*
X0071755Y0071374I-0000508J0D01*
G01*
Y0073914D02*
G03*
X0071755Y0073914I-0000508J0D01*
G01*
Y0076454D02*
G03*
X0071755Y0076454I-0000508J0D01*
G01*
Y0078994D02*
G03*
X0071755Y0078994I-0000508J0D01*
G01*
X0116332Y0098806D02*
G03*
X0116332Y0098806I-0000508J0D01*
G01*
X0113792D02*
G03*
X0113792Y0098806I-0000508J0D01*
G01*
X0111252D02*
G03*
X0111252Y0098806I-0000508J0D01*
G01*
X0108712D02*
G03*
X0108712Y0098806I-0000508J0D01*
G01*
X0106172D02*
G03*
X0106172Y0098806I-0000508J0D01*
G01*
X0103632D02*
G03*
X0103632Y0098806I-0000508J0D01*
G01*
X0122174Y0093218D02*
G03*
X0122174Y0093218I-0000508J0D01*
G01*
Y0090678D02*
G03*
X0122174Y0090678I-0000508J0D01*
G01*
Y0088138D02*
G03*
X0122174Y0088138I-0000508J0D01*
G01*
Y0085598D02*
G03*
X0122174Y0085598I-0000508J0D01*
G01*
Y0083058D02*
G03*
X0122174Y0083058I-0000508J0D01*
G01*
Y0080518D02*
G03*
X0122174Y0080518I-0000508J0D01*
G01*
Y0077978D02*
G03*
X0122174Y0077978I-0000508J0D01*
G01*
Y0075438D02*
G03*
X0122174Y0075438I-0000508J0D01*
G01*
Y0072898D02*
G03*
X0122174Y0072898I-0000508J0D01*
G01*
Y0070358D02*
G03*
X0122174Y0070358I-0000508J0D01*
G01*
Y0067818D02*
G03*
X0122174Y0067818I-0000508J0D01*
G01*
Y0065278D02*
G03*
X0122174Y0065278I-0000508J0D01*
G01*
Y0062738D02*
G03*
X0122174Y0062738I-0000508J0D01*
G01*
Y0060198D02*
G03*
X0122174Y0060198I-0000508J0D01*
G01*
X0124333Y0051816D02*
G03*
X0124333Y0051816I-0000508J0D01*
G01*
Y0049276D02*
G03*
X0124333Y0049276I-0000508J0D01*
G01*
Y0046736D02*
G03*
X0124333Y0046736I-0000508J0D01*
G01*
Y0044196D02*
G03*
X0124333Y0044196I-0000508J0D01*
G01*
Y0041656D02*
G03*
X0124333Y0041656I-0000508J0D01*
G01*
Y0039116D02*
G03*
X0124333Y0039116I-0000508J0D01*
G01*
X0059309Y0109474D02*
G03*
X0059309Y0109474I-0000508J0D01*
G01*
Y0112014D02*
G03*
X0059309Y0112014I-0000508J0D01*
G01*
Y0114554D02*
G03*
X0059309Y0114554I-0000508J0D01*
G01*
Y0117094D02*
G03*
X0059309Y0117094I-0000508J0D01*
G01*
X0074041Y0109601D02*
G03*
X0074041Y0109601I-0000508J0D01*
G01*
X0076581D02*
G03*
X0076581Y0109601I-0000508J0D01*
G01*
X0079121D02*
G03*
X0079121Y0109601I-0000508J0D01*
G01*
X0081661D02*
G03*
X0081661Y0109601I-0000508J0D01*
G01*
X0094234Y011811D02*
G03*
X0094234Y011811I-0000508J0D01*
G01*
X0096774D02*
G03*
X0096774Y011811I-0000508J0D01*
G01*
X0099314D02*
G03*
X0099314Y011811I-0000508J0D01*
G01*
X0094107Y0108077D02*
G03*
X0094107Y0108077I-0000508J0D01*
G01*
X0096647D02*
G03*
X0096647Y0108077I-0000508J0D01*
G01*
X0099187D02*
G03*
X0099187Y0108077I-0000508J0D01*
G01*
X0061468Y0086995D02*
G03*
X0061468Y0086995I-0000508J0D01*
G01*
X0064008D02*
G03*
X0064008Y0086995I-0000508J0D01*
G01*
X0066548D02*
G03*
X0066548Y0086995I-0000508J0D01*
G01*
X0069088D02*
G03*
X0069088Y0086995I-0000508J0D01*
G01*
D40*
X0065659Y0090551D02*
Y0091567D01*
X0066675D01*
Y0090551D01*
X0065659D01*
X0060579D02*
Y0091567D01*
X0061595D01*
Y0090551D01*
X0060579D01*
X0104267Y00890248D02*
X0103759Y00900408D01*
X0104775D01*
X0104267Y00890248D01*
Y00864848D02*
X0103759Y00875008D01*
X0104775D01*
X0104267Y00864848D01*
Y00839448D02*
X0103759Y00849608D01*
X0104775D01*
X0104267Y00839448D01*
Y00814048D02*
X0103759Y00824208D01*
X0104775D01*
X0104267Y00814048D01*
Y00788648D02*
X0103759Y00798808D01*
X0104775D01*
X0104267Y00788648D01*
Y00763248D02*
X0103759Y00773408D01*
X0104775D01*
X0104267Y00763248D01*
Y00737848D02*
X0103759Y00748008D01*
X0104775D01*
X0104267Y00737848D01*
Y00712448D02*
X0103759Y00722608D01*
X0104775D01*
X0104267Y00712448D01*
Y00687048D02*
X0103759Y00697208D01*
X0104775D01*
X0104267Y00687048D01*
Y00661648D02*
X0103759Y00671808D01*
X0104775D01*
X0104267Y00661648D01*
Y00636248D02*
X0103759Y00646408D01*
X0104775D01*
X0104267Y00636248D01*
Y00610848D02*
X0103759Y00621008D01*
X0104775D01*
X0104267Y00610848D01*
Y00585448D02*
X0103759Y00595608D01*
X0104775D01*
X0104267Y00585448D01*
Y00560048D02*
X0103759Y00570208D01*
X0104775D01*
X0104267Y00560048D01*
Y00534648D02*
X0103759Y00544808D01*
X0104775D01*
X0104267Y00534648D01*
Y00509248D02*
X0103759Y00519408D01*
X0104775D01*
X0104267Y00509248D01*
Y00483848D02*
X0103759Y00494008D01*
X0104775D01*
X0104267Y00483848D01*
Y00458448D02*
X0103759Y00468608D01*
X0104775D01*
X0104267Y00458448D01*
Y00431778D02*
X0103759Y00441938D01*
X0104775D01*
X0104267Y00431778D01*
X0078867Y00432458D02*
X0078359Y00442618D01*
X0079375D01*
X0078867Y00432458D01*
Y00457858D02*
X0078359Y00468018D01*
X0079375D01*
X0078867Y00457858D01*
Y00483258D02*
X0078359Y00493418D01*
X0079375D01*
X0078867Y00483258D01*
Y00508658D02*
X0078359Y00518818D01*
X0079375D01*
X0078867Y00508658D01*
Y00534058D02*
X0078359Y00544218D01*
X0079375D01*
X0078867Y00534058D01*
Y00559458D02*
X0078359Y00569618D01*
X0079375D01*
X0078867Y00559458D01*
Y00584858D02*
X0078359Y00595018D01*
X0079375D01*
X0078867Y00584858D01*
Y00610258D02*
X0078359Y00620418D01*
X0079375D01*
X0078867Y00610258D01*
Y00635658D02*
X0078359Y00645818D01*
X0079375D01*
X0078867Y00635658D01*
Y00661058D02*
X0078359Y00671218D01*
X0079375D01*
X0078867Y00661058D01*
Y00686458D02*
X0078359Y00696618D01*
X0079375D01*
X0078867Y00686458D01*
Y00711858D02*
X0078359Y00722018D01*
X0079375D01*
X0078867Y00711858D01*
Y00737258D02*
X0078359Y00747418D01*
X0079375D01*
X0078867Y00737258D01*
Y00762658D02*
X0078359Y00772818D01*
X0079375D01*
X0078867Y00762658D01*
Y00788058D02*
X0078359Y00798218D01*
X0079375D01*
X0078867Y00788058D01*
Y00813458D02*
X0078359Y00823618D01*
X0079375D01*
X0078867Y00813458D01*
Y00838858D02*
X0078359Y00849018D01*
X0079375D01*
X0078867Y00838858D01*
Y00864258D02*
X0078359Y00874418D01*
X0079375D01*
X0078867Y00864258D01*
Y00889658D02*
X0078359Y00899818D01*
X0079375D01*
X0078867Y00889658D01*
X0060579Y0055245D02*
Y0056261D01*
X0061595D01*
Y0055245D01*
X0060579D01*
X0070739D02*
Y0056261D01*
X0071755D01*
Y0055245D01*
X0070739D01*
X0128651Y0030988D02*
Y0032004D01*
X0129667D01*
Y0030988D01*
X0128651D01*
X01288542Y00311912D02*
Y00318008D01*
X01294638D01*
Y00311912D01*
X01288542D01*
X0128397Y0120777D02*
Y0121793D01*
X0129413D01*
Y0120777D01*
X0128397D01*
X01286002Y01209802D02*
Y01215898D01*
X01292098D01*
Y01209802D01*
X01286002D01*
X0049276Y0120777D02*
Y0121793D01*
X0050292D01*
Y0120777D01*
X0049276D01*
X00494792Y01209802D02*
Y01215898D01*
X00500888D01*
Y01209802D01*
X00494792D01*
X0049403Y0031115D02*
Y0032131D01*
X0050419D01*
Y0031115D01*
X0049403D01*
X00496062Y00313182D02*
Y00319278D01*
X00502158D01*
Y00313182D01*
X00496062D01*
X0002992Y0002992D02*
X0003246Y00035D01*
X0002992Y0004008D01*
X00035Y0003754D01*
X0004008Y0004008D01*
X0003754Y00035D01*
X0004008Y0002992D01*
X00035Y0003246D01*
X0002992Y0002992D01*
X0098298Y0114046D02*
Y0115062D01*
X0099314D01*
Y0114046D01*
X0098298D01*
X0088138D02*
Y0115062D01*
X0089154D01*
Y0114046D01*
X0088138D01*
X0088011Y0110744D02*
Y011176D01*
X0089027D01*
Y0110744D01*
X0088011D01*
X0098171D02*
Y011176D01*
X0099187D01*
Y0110744D01*
X0098171D01*
X0095758Y0098298D02*
Y0099314D01*
X0096774D01*
Y0098298D01*
X0095758D01*
X0090678D02*
Y0099314D01*
X0091694D01*
Y0098298D01*
X0090678D01*
X0095758Y0102616D02*
Y0103632D01*
X0096774D01*
Y0102616D01*
X0095758D01*
X0090678D02*
Y0103632D01*
X0091694D01*
Y0102616D01*
X0090678D01*
X0060579Y0093726D02*
Y0094742D01*
X0061595D01*
Y0093726D01*
X0060579D01*
X0065659D02*
Y0094742D01*
X0066675D01*
Y0093726D01*
X0065659D01*
X0052959Y0060198D02*
X0053213Y0060452D01*
X0053467D01*
X0053213Y0060706D01*
X0053467Y006096D01*
X0053213D01*
X0052959Y0061214D01*
X0052705Y006096D01*
X0052451D01*
X0052705Y0060706D01*
X0052451Y0060452D01*
X0052705D01*
X0052959Y0060198D01*
Y0055118D02*
X0053213Y0055372D01*
X0053467D01*
X0053213Y0055626D01*
X0053467Y005588D01*
X0053213D01*
X0052959Y0056134D01*
X0052705Y005588D01*
X0052451D01*
X0052705Y0055626D01*
X0052451Y0055372D01*
X0052705D01*
X0052959Y0055118D01*
X0072644Y0037592D02*
Y0038608D01*
X007366D01*
Y0037592D01*
X0072644D01*
Y0042672D02*
Y0043688D01*
X007366D01*
Y0042672D01*
X0072644D01*
X0053086Y0073406D02*
X005334Y007366D01*
X0053594D01*
X005334Y0073914D01*
X0053594Y0074168D01*
X005334D01*
X0053086Y0074422D01*
X0052832Y0074168D01*
X0052578D01*
X0052832Y0073914D01*
X0052578Y007366D01*
X0052832D01*
X0053086Y0073406D01*
Y0078486D02*
X005334Y007874D01*
X0053594D01*
X005334Y0078994D01*
X0053594Y0079248D01*
X005334D01*
X0053086Y0079502D01*
X0052832Y0079248D01*
X0052578D01*
X0052832Y0078994D01*
X0052578Y007874D01*
X0052832D01*
X0053086Y0078486D01*
X0064897Y0042926D02*
Y0042672D01*
X0065405D01*
Y0042926D01*
X0065659D01*
Y0043434D01*
X0065405D01*
Y0043688D01*
X0064897D01*
Y0043434D01*
X0064643D01*
Y0042926D01*
X0064897D01*
Y0039116D02*
Y0038862D01*
X0065405D01*
Y0039116D01*
X0065659D01*
Y0039624D01*
X0065405D01*
Y0039878D01*
X0064897D01*
Y0039624D01*
X0064643D01*
Y0039116D01*
X0064897D01*
X0053086Y0037719D02*
X005334Y0037973D01*
X0053594D01*
X005334Y0038227D01*
X0053594Y0038481D01*
X005334D01*
X0053086Y0038735D01*
X0052832Y0038481D01*
X0052578D01*
X0052832Y0038227D01*
X0052578Y0037973D01*
X0052832D01*
X0053086Y0037719D01*
Y0042799D02*
X005334Y0043053D01*
X0053594D01*
X005334Y0043307D01*
X0053594Y0043561D01*
X005334D01*
X0053086Y0043815D01*
X0052832Y0043561D01*
X0052578D01*
X0052832Y0043307D01*
X0052578Y0043053D01*
X0052832D01*
X0053086Y0042799D01*
X0068072Y0114173D02*
Y0115189D01*
X0069088D01*
Y0114173D01*
X0068072D01*
Y0109093D02*
Y0110109D01*
X0069088D01*
Y0109093D01*
X0068072D01*
X0063754Y0114173D02*
Y0115189D01*
X006477D01*
Y0114173D01*
X0063754D01*
Y0109093D02*
Y0110109D01*
X006477D01*
Y0109093D01*
X0063754D01*
X0111125Y0038608D02*
Y0039624D01*
X0112141D01*
Y0038608D01*
X0111125D01*
Y0043688D02*
Y0044704D01*
X0112141D01*
Y0043688D01*
X0111125D01*
X0116205Y0038608D02*
Y0039624D01*
X0117221D01*
Y0038608D01*
X0116205D01*
Y0043688D02*
Y0044704D01*
X0117221D01*
Y0043688D01*
X0116205D01*
M02*
