G04*
G04 #@! TF.GenerationSoftware,Altium Limited,Altium Designer,24.1.2 (44)*
G04*
G04 Layer_Color=255*
%FSTAX44Y44*%
%MOMM*%
G71*
G04*
G04 #@! TF.SameCoordinates,46C1A562-4BA7-4692-8D37-5F050BF63494*
G04*
G04*
G04 #@! TF.FilePolarity,Positive*
G04*
G01*
G75*
%ADD27R,1.5000X1.5000*%
%ADD28C,1.5000*%
%ADD29C,1.7780*%
%ADD30O,2.0320X1.7780*%
%ADD31O,2.2000X1.6000*%
%ADD32R,1.5000X1.5000*%
%ADD33C,3.2000*%
%ADD34C,1.5240*%
%ADD35C,2.7940*%
%ADD36R,2.5400X1.7780*%
%ADD37O,2.5400X1.7780*%
D27*
X0053467Y0093091D02*
D03*
X0071247Y0078994D02*
D03*
X0121666Y0093218D02*
D03*
X0123825Y0051816D02*
D03*
X0058801Y0109474D02*
D03*
D28*
X0053467Y0095631D02*
D03*
Y0098171D02*
D03*
Y0100711D02*
D03*
Y0103251D02*
D03*
Y0105791D02*
D03*
X0071247Y0061214D02*
D03*
Y0063754D02*
D03*
Y0066294D02*
D03*
Y0068834D02*
D03*
Y0071374D02*
D03*
Y0073914D02*
D03*
Y0076454D02*
D03*
X0113284Y0098806D02*
D03*
X0110744D02*
D03*
X0108204D02*
D03*
X0105664D02*
D03*
X0103124D02*
D03*
X0121666Y0090678D02*
D03*
Y0088138D02*
D03*
Y0085598D02*
D03*
Y0083058D02*
D03*
Y0080518D02*
D03*
Y0077978D02*
D03*
Y0075438D02*
D03*
Y0072898D02*
D03*
Y0070358D02*
D03*
Y0067818D02*
D03*
Y0065278D02*
D03*
Y0062738D02*
D03*
Y0060198D02*
D03*
X0123825Y0049276D02*
D03*
Y0046736D02*
D03*
Y0044196D02*
D03*
Y0041656D02*
D03*
Y0039116D02*
D03*
X0058801Y0112014D02*
D03*
Y0114554D02*
D03*
Y0117094D02*
D03*
X0073533Y0109601D02*
D03*
X0076073D02*
D03*
X0078613D02*
D03*
X0093726Y011811D02*
D03*
X0096266D02*
D03*
X0096139Y0108077D02*
D03*
X0098679D02*
D03*
X006096Y0086995D02*
D03*
X00635D02*
D03*
X006604D02*
D03*
D29*
X0066167Y0091059D02*
D03*
X0061087D02*
D03*
X0096266Y0098806D02*
D03*
X0091186D02*
D03*
X0096266Y0103124D02*
D03*
X0091186D02*
D03*
X0061087Y0094234D02*
D03*
X0066167D02*
D03*
X0073152Y00381D02*
D03*
Y004318D02*
D03*
X006858Y0114681D02*
D03*
Y0109601D02*
D03*
X0064262Y0114681D02*
D03*
Y0109601D02*
D03*
X0111633Y0039116D02*
D03*
Y0044196D02*
D03*
X0116713Y0039116D02*
D03*
Y0044196D02*
D03*
D30*
X0104267Y00895328D02*
D03*
Y00869928D02*
D03*
Y00844528D02*
D03*
Y00819128D02*
D03*
Y00793728D02*
D03*
Y00768328D02*
D03*
Y00742928D02*
D03*
Y00717528D02*
D03*
Y00692128D02*
D03*
Y00666728D02*
D03*
Y00641328D02*
D03*
Y00615928D02*
D03*
Y00590528D02*
D03*
Y00565128D02*
D03*
Y00539728D02*
D03*
Y00514328D02*
D03*
Y00488928D02*
D03*
Y00463528D02*
D03*
Y00436858D02*
D03*
X0078867Y00437538D02*
D03*
Y00462938D02*
D03*
Y00488338D02*
D03*
Y00513738D02*
D03*
Y00539138D02*
D03*
Y00564538D02*
D03*
Y00589938D02*
D03*
Y00615338D02*
D03*
Y00640738D02*
D03*
Y00666138D02*
D03*
Y00691538D02*
D03*
Y00716938D02*
D03*
Y00742338D02*
D03*
Y00767738D02*
D03*
Y00793138D02*
D03*
Y00818538D02*
D03*
Y00843938D02*
D03*
Y00869338D02*
D03*
Y00894738D02*
D03*
D31*
X0061087Y0055753D02*
D03*
X0071247D02*
D03*
X0098806Y0114554D02*
D03*
X0088646D02*
D03*
X0088519Y0111252D02*
D03*
X0098679D02*
D03*
D32*
X0115824Y0098806D02*
D03*
X0081153Y0109601D02*
D03*
X0098806Y011811D02*
D03*
X0093599Y0108077D02*
D03*
X006858Y0086995D02*
D03*
D33*
X0129159Y0031496D02*
D03*
X0128905Y0121285D02*
D03*
X0049784D02*
D03*
X0049911Y0031623D02*
D03*
D34*
X00035Y00035D02*
D03*
D03*
D35*
X0052959Y0060706D02*
D03*
Y0055626D02*
D03*
X0053086Y0073914D02*
D03*
Y0078994D02*
D03*
Y0038227D02*
D03*
Y0043307D02*
D03*
D36*
X0065151Y004318D02*
D03*
D37*
Y003937D02*
D03*
M02*
