M48
;Layer_Color=9474304
;FILE_FORMAT=2:4
INCH,LZ
;TYPE=PLATED
T01F00S00C0.0300
T02F00S00C0.0310
T03F00S00C0.0320
T04F00S00C0.0354
T05F00S00C0.0360
T06F00S00C0.0500
T07F00S00C0.1220
%
T01
X001378Y001378
T02
X0288Y015
X04395Y0154
X04595
Y0174
X04395
X0288Y017
X02805Y02195
X02405
Y03585
Y0371
X02605
Y03585
X0253Y04315
X027
Y04515
X0253
X0349Y0451
X03485Y0438
X03885
X0389Y0451
X0379Y0406
Y0389
X0359
Y0406
T03
X02565Y0155
Y017
T04
X04875Y0154
Y0164
Y0174
Y0184
Y0194
Y0204
X0479Y0237
Y0247
Y0257
Y0267
Y0277
Y0287
Y0297
Y0307
X02805Y0311
Y0301
Y0291
Y0281
Y0271
Y0261
Y0251
Y0241
X027Y03425
X026
X025
X024
X02105Y03665
Y03765
Y03865
Y03965
Y04065
Y04165
X02315Y0431
Y0441
Y0451
Y0461
X02895Y04315
X02995
X03095
X03195
X03685Y04255
X03785
X03885
X0389Y0465
X0379
X0369
X0406Y0389
X0416
X0426
X0436
X0446
X0456
X0479Y0367
Y0357
Y0347
Y0337
Y0327
Y0317
T05
X04105Y017199
Y018249
Y019249
Y020249
Y021249
Y022249
Y023249
Y024249
Y025249
Y026249
Y027249
Y028249
Y029249
Y030249
Y031249
X03105Y031226
Y030226
Y029226
Y028226
Y027226
Y026226
Y025226
Y024226
Y023226
Y022226
Y021226
Y020226
Y019226
Y018226
Y017226
Y032226
Y033226
Y034226
Y035226
X04105Y035249
Y034249
Y033249
Y032249
T06
X0209Y01505
Y01705
X02085Y0219
Y0239
X0209Y0291
Y0311
T07
X01965Y01245
X05085Y0124
X05075Y04775
X0196
M30
